<mxfile host="Electron" agent="Mozilla/5.0 (Windows NT 10.0; Win64; x64) AppleWebKit/537.36 (KHTML, like Gecko) draw.io/24.7.8 Chrome/128.0.6613.36 Electron/32.0.1 Safari/537.36" version="24.7.8">
  <diagram name="Page-1" id="ijN2dV4BUfoUWHGws17H">
    <mxGraphModel dx="2474" dy="1204" grid="0" gridSize="10" guides="1" tooltips="1" connect="1" arrows="1" fold="1" page="0" pageScale="1" pageWidth="850" pageHeight="1100" math="0" shadow="0">
      <root>
        <mxCell id="0" />
        <mxCell id="1" parent="0" />
        <mxCell id="S-wY2ub1q2OpFXzZ6M3d-32" value="" style="rounded=1;whiteSpace=wrap;html=1;fillColor=#edf3fd;strokeColor=#6c8ebf;" vertex="1" parent="1">
          <mxGeometry x="680" y="1512" width="807" height="525" as="geometry" />
        </mxCell>
        <mxCell id="Vi4naRsMEILFWYYEFc6n-3" value="" style="rounded=1;whiteSpace=wrap;html=1;fillColor=#FFFBF2;strokeColor=#d6b656;" parent="1" vertex="1">
          <mxGeometry x="91" y="1435" width="422" height="883" as="geometry" />
        </mxCell>
        <mxCell id="S-wY2ub1q2OpFXzZ6M3d-36" value="" style="edgeStyle=orthogonalEdgeStyle;rounded=0;orthogonalLoop=1;jettySize=auto;html=1;" edge="1" parent="1" source="L3F7ZepZsozi0lk-eWlK-1" target="L3F7ZepZsozi0lk-eWlK-2">
          <mxGeometry relative="1" as="geometry" />
        </mxCell>
        <mxCell id="L3F7ZepZsozi0lk-eWlK-1" value="Load dotenv()" style="rounded=0;whiteSpace=wrap;html=1;fillColor=#f8cecc;strokeColor=#b85450;" parent="1" vertex="1">
          <mxGeometry x="120" y="550" width="120" height="60" as="geometry" />
        </mxCell>
        <mxCell id="S-wY2ub1q2OpFXzZ6M3d-37" value="" style="edgeStyle=orthogonalEdgeStyle;rounded=0;orthogonalLoop=1;jettySize=auto;html=1;" edge="1" parent="1" source="L3F7ZepZsozi0lk-eWlK-2" target="L3F7ZepZsozi0lk-eWlK-3">
          <mxGeometry relative="1" as="geometry" />
        </mxCell>
        <mxCell id="L3F7ZepZsozi0lk-eWlK-2" value="import_ast()" style="rounded=0;whiteSpace=wrap;html=1;fillColor=#dae8fc;strokeColor=#6c8ebf;" parent="1" vertex="1">
          <mxGeometry x="120" y="650" width="120" height="60" as="geometry" />
        </mxCell>
        <mxCell id="S-wY2ub1q2OpFXzZ6M3d-38" value="" style="edgeStyle=orthogonalEdgeStyle;rounded=0;orthogonalLoop=1;jettySize=auto;html=1;" edge="1" parent="1" source="L3F7ZepZsozi0lk-eWlK-3" target="L3F7ZepZsozi0lk-eWlK-4">
          <mxGeometry relative="1" as="geometry" />
        </mxCell>
        <mxCell id="L3F7ZepZsozi0lk-eWlK-3" value="setup_BCGW()" style="rounded=0;whiteSpace=wrap;html=1;fillColor=#dae8fc;strokeColor=#6c8ebf;" parent="1" vertex="1">
          <mxGeometry x="120" y="740" width="120" height="60" as="geometry" />
        </mxCell>
        <mxCell id="S-wY2ub1q2OpFXzZ6M3d-39" value="" style="edgeStyle=orthogonalEdgeStyle;rounded=0;orthogonalLoop=1;jettySize=auto;html=1;" edge="1" parent="1" source="L3F7ZepZsozi0lk-eWlK-4" target="L3F7ZepZsozi0lk-eWlK-5">
          <mxGeometry relative="1" as="geometry" />
        </mxCell>
        <mxCell id="L3F7ZepZsozi0lk-eWlK-4" value="create_new_&lt;div&gt;queufefile()&lt;/div&gt;" style="rounded=0;whiteSpace=wrap;html=1;fillColor=#fff2cc;strokeColor=#d6b656;" parent="1" vertex="1">
          <mxGeometry x="120" y="840" width="120" height="60" as="geometry" />
        </mxCell>
        <mxCell id="S-wY2ub1q2OpFXzZ6M3d-40" value="" style="edgeStyle=orthogonalEdgeStyle;rounded=0;orthogonalLoop=1;jettySize=auto;html=1;" edge="1" parent="1" source="L3F7ZepZsozi0lk-eWlK-5" target="L3F7ZepZsozi0lk-eWlK-10">
          <mxGeometry relative="1" as="geometry" />
        </mxCell>
        <mxCell id="L3F7ZepZsozi0lk-eWlK-5" value="Create AST_FACTORY()" style="rounded=0;whiteSpace=wrap;html=1;fillColor=#fff2cc;strokeColor=#d6b656;" parent="1" vertex="1">
          <mxGeometry x="120" y="930" width="120" height="60" as="geometry" />
        </mxCell>
        <mxCell id="L3F7ZepZsozi0lk-eWlK-9" value="classify_input_type()" style="rounded=0;whiteSpace=wrap;html=1;fillColor=#fff2cc;strokeColor=#d6b656;" parent="1" vertex="1">
          <mxGeometry x="850" y="1030" width="120" height="60" as="geometry" />
        </mxCell>
        <mxCell id="S-wY2ub1q2OpFXzZ6M3d-15" value="" style="edgeStyle=orthogonalEdgeStyle;rounded=0;orthogonalLoop=1;jettySize=auto;html=1;entryX=0;entryY=0.5;entryDx=0;entryDy=0;" edge="1" parent="1" source="L3F7ZepZsozi0lk-eWlK-10" target="Vi4naRsMEILFWYYEFc6n-5">
          <mxGeometry relative="1" as="geometry">
            <mxPoint x="320" y="1060" as="targetPoint" />
          </mxGeometry>
        </mxCell>
        <mxCell id="L3F7ZepZsozi0lk-eWlK-10" value="load_jobs()" style="rounded=0;whiteSpace=wrap;html=1;fillColor=#fff2cc;strokeColor=#d6b656;" parent="1" vertex="1">
          <mxGeometry x="120" y="1030" width="120" height="60" as="geometry" />
        </mxCell>
        <mxCell id="S-wY2ub1q2OpFXzZ6M3d-55" value="" style="edgeStyle=orthogonalEdgeStyle;rounded=0;orthogonalLoop=1;jettySize=auto;html=1;" edge="1" parent="1" source="L3F7ZepZsozi0lk-eWlK-13" target="Vi4naRsMEILFWYYEFc6n-8">
          <mxGeometry relative="1" as="geometry" />
        </mxCell>
        <mxCell id="L3F7ZepZsozi0lk-eWlK-13" value="concurrent.&lt;div&gt;futures.&lt;/div&gt;&lt;div&gt;ProcessPoolExecutor&lt;/div&gt;" style="rounded=0;whiteSpace=wrap;html=1;fillColor=#f8cecc;strokeColor=#b85450;" parent="1" vertex="1">
          <mxGeometry x="360" y="1480" width="120" height="60" as="geometry" />
        </mxCell>
        <mxCell id="L3F7ZepZsozi0lk-eWlK-14" value="batch_ast_v2()" style="rounded=0;whiteSpace=wrap;html=1;fillColor=#fff2cc;strokeColor=#d6b656;" parent="1" vertex="1">
          <mxGeometry x="110" y="1480" width="120" height="60" as="geometry" />
        </mxCell>
        <mxCell id="L3F7ZepZsozi0lk-eWlK-20" value="" style="endArrow=classic;html=1;rounded=0;exitX=0.5;exitY=1;exitDx=0;exitDy=0;" parent="1" source="L3F7ZepZsozi0lk-eWlK-10" edge="1">
          <mxGeometry width="50" height="50" relative="1" as="geometry">
            <mxPoint x="155" y="1200" as="sourcePoint" />
            <mxPoint x="174" y="1430" as="targetPoint" />
          </mxGeometry>
        </mxCell>
        <mxCell id="L3F7ZepZsozi0lk-eWlK-21" value="" style="endArrow=classic;html=1;rounded=0;" parent="1" edge="1">
          <mxGeometry width="50" height="50" relative="1" as="geometry">
            <mxPoint x="230" y="1509.5" as="sourcePoint" />
            <mxPoint x="350" y="1510" as="targetPoint" />
          </mxGeometry>
        </mxCell>
        <mxCell id="S-wY2ub1q2OpFXzZ6M3d-35" value="" style="edgeStyle=orthogonalEdgeStyle;rounded=0;orthogonalLoop=1;jettySize=auto;html=1;" edge="1" parent="1" source="L3F7ZepZsozi0lk-eWlK-26" target="L3F7ZepZsozi0lk-eWlK-1">
          <mxGeometry relative="1" as="geometry" />
        </mxCell>
        <mxCell id="S-wY2ub1q2OpFXzZ6M3d-60" value="" style="edgeStyle=orthogonalEdgeStyle;rounded=0;orthogonalLoop=1;jettySize=auto;html=1;entryX=0;entryY=0.5;entryDx=0;entryDy=0;" edge="1" parent="1" source="L3F7ZepZsozi0lk-eWlK-26" target="S-wY2ub1q2OpFXzZ6M3d-5">
          <mxGeometry relative="1" as="geometry">
            <mxPoint x="320" y="490" as="targetPoint" />
          </mxGeometry>
        </mxCell>
        <mxCell id="L3F7ZepZsozi0lk-eWlK-26" value="setup_logging()" style="rounded=0;whiteSpace=wrap;html=1;fillColor=#dae8fc;strokeColor=#6c8ebf;" parent="1" vertex="1">
          <mxGeometry x="120" y="460" width="120" height="60" as="geometry" />
        </mxCell>
        <mxCell id="L3F7ZepZsozi0lk-eWlK-27" value="Load Jobs calls classify&lt;div&gt;_input_type()&lt;/div&gt;" style="text;html=1;align=center;verticalAlign=middle;resizable=0;points=[];autosize=1;strokeColor=none;fillColor=none;fontStyle=5" parent="1" vertex="1">
          <mxGeometry x="415" y="951" width="143" height="41" as="geometry" />
        </mxCell>
        <mxCell id="L3F7ZepZsozi0lk-eWlK-28" value="batch_ast() calls upon pool of workers" style="text;html=1;align=center;verticalAlign=middle;resizable=0;points=[];autosize=1;strokeColor=none;fillColor=none;fontStyle=5" parent="1" vertex="1">
          <mxGeometry x="116" y="1565" width="230" height="30" as="geometry" />
        </mxCell>
        <mxCell id="L3F7ZepZsozi0lk-eWlK-29" value="Auto&amp;nbsp; AST Workflow" style="text;html=1;align=center;verticalAlign=middle;resizable=0;points=[];autosize=1;strokeColor=none;fillColor=none;fontStyle=5;fontSize=39;" parent="1" vertex="1">
          <mxGeometry x="9" y="100" width="363" height="59" as="geometry" />
        </mxCell>
        <mxCell id="S-wY2ub1q2OpFXzZ6M3d-57" value="" style="edgeStyle=orthogonalEdgeStyle;rounded=0;orthogonalLoop=1;jettySize=auto;html=1;" edge="1" parent="1" source="Vi4naRsMEILFWYYEFc6n-1" target="S-wY2ub1q2OpFXzZ6M3d-26">
          <mxGeometry relative="1" as="geometry" />
        </mxCell>
        <mxCell id="Vi4naRsMEILFWYYEFc6n-1" value="concurrent.&lt;div&gt;futures.&lt;/div&gt;&lt;div&gt;as_completed&lt;br&gt;&lt;div&gt;&lt;br&gt;&lt;/div&gt;&lt;/div&gt;" style="rounded=0;whiteSpace=wrap;html=1;fillColor=#f8cecc;strokeColor=#b85450;" parent="1" vertex="1">
          <mxGeometry x="360" y="1846" width="120" height="60" as="geometry" />
        </mxCell>
        <mxCell id="S-wY2ub1q2OpFXzZ6M3d-50" value="" style="edgeStyle=orthogonalEdgeStyle;rounded=0;orthogonalLoop=1;jettySize=auto;html=1;" edge="1" parent="1" source="Vi4naRsMEILFWYYEFc6n-4" target="S-wY2ub1q2OpFXzZ6M3d-28">
          <mxGeometry relative="1" as="geometry" />
        </mxCell>
        <mxCell id="Vi4naRsMEILFWYYEFc6n-4" value="process_job" style="rounded=0;whiteSpace=wrap;html=1;fillColor=#dae8fc;strokeColor=#6c8ebf;" parent="1" vertex="1">
          <mxGeometry x="729" y="1741" width="120" height="60" as="geometry" />
        </mxCell>
        <mxCell id="S-wY2ub1q2OpFXzZ6M3d-18" value="" style="edgeStyle=orthogonalEdgeStyle;rounded=0;orthogonalLoop=1;jettySize=auto;html=1;" edge="1" parent="1" source="Vi4naRsMEILFWYYEFc6n-5" target="S-wY2ub1q2OpFXzZ6M3d-13">
          <mxGeometry relative="1" as="geometry" />
        </mxCell>
        <mxCell id="Vi4naRsMEILFWYYEFc6n-5" value="add_job_result()" style="rounded=0;whiteSpace=wrap;html=1;fillColor=#fff2cc;strokeColor=#d6b656;" parent="1" vertex="1">
          <mxGeometry x="417" y="1030" width="120" height="60" as="geometry" />
        </mxCell>
        <mxCell id="Vi4naRsMEILFWYYEFc6n-6" value="build_aoi_from_kml()" style="rounded=0;whiteSpace=wrap;html=1;fillColor=#fff2cc;strokeColor=#d6b656;" parent="1" vertex="1">
          <mxGeometry x="1130" y="967" width="120" height="60" as="geometry" />
        </mxCell>
        <mxCell id="Vi4naRsMEILFWYYEFc6n-7" value="build_aoi_from_shp()" style="rounded=0;whiteSpace=wrap;html=1;fillColor=#fff2cc;strokeColor=#d6b656;" parent="1" vertex="1">
          <mxGeometry x="1130" y="1072" width="120" height="60" as="geometry" />
        </mxCell>
        <mxCell id="S-wY2ub1q2OpFXzZ6M3d-56" value="" style="edgeStyle=orthogonalEdgeStyle;rounded=0;orthogonalLoop=1;jettySize=auto;html=1;" edge="1" parent="1" source="Vi4naRsMEILFWYYEFc6n-8" target="S-wY2ub1q2OpFXzZ6M3d-26">
          <mxGeometry relative="1" as="geometry" />
        </mxCell>
        <mxCell id="Vi4naRsMEILFWYYEFc6n-8" value="capture_arcpy&lt;div&gt;_messages()&lt;/div&gt;" style="rounded=0;whiteSpace=wrap;html=1;fillColor=#fff2cc;strokeColor=#d6b656;" parent="1" vertex="1">
          <mxGeometry x="360" y="1568" width="120" height="60" as="geometry" />
        </mxCell>
        <mxCell id="Vi4naRsMEILFWYYEFc6n-9" value="" style="endArrow=classic;startArrow=classic;html=1;rounded=0;" parent="1" edge="1">
          <mxGeometry width="50" height="50" relative="1" as="geometry">
            <mxPoint x="969" y="1054" as="sourcePoint" />
            <mxPoint x="1128" y="1000" as="targetPoint" />
          </mxGeometry>
        </mxCell>
        <mxCell id="Vi4naRsMEILFWYYEFc6n-11" value="" style="endArrow=classic;startArrow=classic;html=1;rounded=0;" parent="1" edge="1">
          <mxGeometry width="50" height="50" relative="1" as="geometry">
            <mxPoint x="969" y="1063" as="sourcePoint" />
            <mxPoint x="1125" y="1106" as="targetPoint" />
          </mxGeometry>
        </mxCell>
        <mxCell id="Vi4naRsMEILFWYYEFc6n-13" value="Process the results as they&amp;nbsp;&lt;div&gt;complete.&amp;nbsp;Set a timeout&amp;nbsp;&lt;/div&gt;&lt;div&gt;to control how long to wait&amp;nbsp;&lt;/div&gt;&lt;div&gt;for the job result&lt;/div&gt;" style="text;html=1;align=center;verticalAlign=middle;resizable=0;points=[];autosize=1;strokeColor=none;fillColor=none;fontStyle=1" parent="1" vertex="1">
          <mxGeometry x="341" y="1915" width="165" height="70" as="geometry" />
        </mxCell>
        <mxCell id="Vi4naRsMEILFWYYEFc6n-14" value="TIMEOUT" style="ellipse;whiteSpace=wrap;html=1;fillColor=#e1d5e7;strokeColor=#9673a6;" parent="1" vertex="1">
          <mxGeometry x="-73" y="1836" width="120" height="80" as="geometry" />
        </mxCell>
        <mxCell id="Vi4naRsMEILFWYYEFc6n-17" value="" style="endArrow=classic;html=1;rounded=0;" parent="1" target="Vi4naRsMEILFWYYEFc6n-1" edge="1">
          <mxGeometry width="50" height="50" relative="1" as="geometry">
            <mxPoint x="48" y="1875" as="sourcePoint" />
            <mxPoint x="-17" y="1774" as="targetPoint" />
          </mxGeometry>
        </mxCell>
        <mxCell id="S-wY2ub1q2OpFXzZ6M3d-1" value="Output Variable" style="ellipse;whiteSpace=wrap;html=1;fillColor=#d5e8d4;strokeColor=#82b366;" vertex="1" parent="1">
          <mxGeometry x="116" y="242" width="120" height="80" as="geometry" />
        </mxCell>
        <mxCell id="S-wY2ub1q2OpFXzZ6M3d-2" value="Global Function" style="rounded=0;whiteSpace=wrap;html=1;fillColor=#dae8fc;strokeColor=#6c8ebf;" vertex="1" parent="1">
          <mxGeometry x="-61" y="252" width="120" height="60" as="geometry" />
        </mxCell>
        <mxCell id="S-wY2ub1q2OpFXzZ6M3d-3" value="Input Variable" style="ellipse;whiteSpace=wrap;html=1;fillColor=#e1d5e7;strokeColor=#9673a6;" vertex="1" parent="1">
          <mxGeometry x="293" y="244" width="120" height="80" as="geometry" />
        </mxCell>
        <mxCell id="S-wY2ub1q2OpFXzZ6M3d-4" value="AST Method" style="rounded=0;whiteSpace=wrap;html=1;fillColor=#fff2cc;strokeColor=#d6b656;" vertex="1" parent="1">
          <mxGeometry x="-231" y="252" width="120" height="60" as="geometry" />
        </mxCell>
        <mxCell id="S-wY2ub1q2OpFXzZ6M3d-5" value="Output Log Folders" style="ellipse;whiteSpace=wrap;html=1;fillColor=#d5e8d4;strokeColor=#82b366;" vertex="1" parent="1">
          <mxGeometry x="372" y="450" width="120" height="80" as="geometry" />
        </mxCell>
        <mxCell id="S-wY2ub1q2OpFXzZ6M3d-6" value="ast_toolbox" style="ellipse;whiteSpace=wrap;html=1;fillColor=#e1d5e7;strokeColor=#9673a6;" vertex="1" parent="1">
          <mxGeometry x="-90" y="640" width="120" height="80" as="geometry" />
        </mxCell>
        <mxCell id="S-wY2ub1q2OpFXzZ6M3d-7" value=".env file - Secret&lt;div&gt;File, Toolbox, Queue&lt;/div&gt;&lt;div&gt;File,. Template etc&lt;/div&gt;" style="ellipse;whiteSpace=wrap;html=1;fillColor=#e1d5e7;strokeColor=#9673a6;" vertex="1" parent="1">
          <mxGeometry x="-92" y="537" width="120" height="80" as="geometry" />
        </mxCell>
        <mxCell id="S-wY2ub1q2OpFXzZ6M3d-8" value="" style="endArrow=classic;html=1;rounded=0;entryX=0;entryY=0.5;entryDx=0;entryDy=0;" edge="1" parent="1" target="L3F7ZepZsozi0lk-eWlK-1">
          <mxGeometry width="50" height="50" relative="1" as="geometry">
            <mxPoint x="30" y="582" as="sourcePoint" />
            <mxPoint x="80" y="532" as="targetPoint" />
          </mxGeometry>
        </mxCell>
        <mxCell id="S-wY2ub1q2OpFXzZ6M3d-9" value="" style="endArrow=classic;html=1;rounded=0;entryX=0;entryY=0.5;entryDx=0;entryDy=0;" edge="1" parent="1" target="L3F7ZepZsozi0lk-eWlK-2">
          <mxGeometry width="50" height="50" relative="1" as="geometry">
            <mxPoint x="32" y="683" as="sourcePoint" />
            <mxPoint x="82" y="633" as="targetPoint" />
          </mxGeometry>
        </mxCell>
        <mxCell id="S-wY2ub1q2OpFXzZ6M3d-11" value="" style="shape=image;aspect=fixed;image=data:image/png,iVBORw0KGgoAAAANSUhEUgAABMMAAAN2CAYAAAD0SU5zAAAAAXNSR0IArs4c6QAAAARnQU1BAACxjwv8YQUAAAAJcEhZcwAADsMAAA7DAcdvqGQAAMJMSURBVHhe7P3P6y3XfSd6a6qZBh5oIPDEHkStQTC2aDxxW+4LLZAaYpKm4451FF8uxuZyuYMMEuE4kpMWfa4FN91cGozPJBZ98kSHgEm7m8MdhGvytJVui3AeMC1onz9Cnt2R69n1a+9aqz5VtWrv/f216zV4Ie9dq6pWrbWqvnu9XVXnmU9/+tMVAAAAAGyBMAwAAACAzRCGAQAAALAZwjAAAAAANkMYBgAAAMBmCMMAAAAA2AxhGAAAAACbIQwDAAAAYDOEYQAAAABshjAMAAAAgM0QhgEAAACwGcIwAAAAADZDGAYAAADAZgjDAAAAANgMYRgAAAAAmyEMAwAAAGAzjg/D/qe/qP7Lu/9P9V/+6N9V/zJavvdH1X+oy+39p+rffy4qx8V69feqf/i3f1j93TdeipffUv/qG99u6v0Pf/DFcPmNuKNtCQAAALfFFYdh/6L693+0K/O//lGwjM0Qhp2PMAwAAABOcrWPSX7u31X/tzvBEOCcj7YEAACAk1xtGNbcPSYM27zP/7Pq7/7tH1Z//WqwjHW0JQAAAJxkfRjWPx7Zm3sE8jaFYfd/WT14+svq9U9/UH3n6a93/7v13sO3s7JvV996cliel3n54SfVgyc/q16v/1sv3/3vl+/9rHqvKVtvf7Ct/feduuxwOWfyxeqvm4Co/W9951QdFr3zB+3/Tu+ieql68L32+15+l9X+8ciJ5bVm2/Xjk92dWq1vVw8+n5a7EW8/qj766KPqo0f52AYAAABOuDNs6n1g+QvzMzf1/rAmDKtDqU+qb91rv2uCrcHn2uuP08/9et+5335u19lt5/EHXdj1SfXek0PItg/OmvXybQvErkYfgrVhVB1U/d33vt2EWG2w9XvVO13Zd/4gC6y6MCu+06rd7mQYVu/ze/+s+lfNd13Itv98g4RhAAAAMOkKwrCBW3dnWBZ0dXdu9UFXLA25kgCtW79dNizX3l02vKOs0YVnSR2uzderv/j7X1S/+EXsb/6sLff1v/j7cHnjb/4s2+Zt0YVh3Yvu26CqDcDyMGxsOvBaDMOy4Gt5XwAAAMBNE4blYVj33f7Rxk4ahnWPQybrD8Ow9FHM3Hz4xnppaDUMqkYBVffOrcOjjS1hGAAAAGyDMGwYTvVBWP0IZF8mvDOsLAwb3RnGFSkMw/ogrLuDLFo3JQwDAACASyMM24dZE2WOCsO6l/AnodpNu/zHJBfDsOb9YPlL7oVhAAAAsCXCsGEYln/uAq760cZ1Ydjuc7M/d4ddj8IwrLsz7PCy/Ha9i3tM0gv0AQAAYNLqMOxf/t5/qsJ/JTIKve7gO8PasGv4fq/0ZfjFYVitC8QS/jXJK1AYhu0/twFY7a9fbf8VyGHg1aw/KHNw2I4wDAAAAO6mE+4MAwAAAIC7RRgGAAAAwGbc3jCsewRx9Jhh4v+t/s/w+9TwMcjb4vXHcV0T/7//N/5+6K4+dtn/y46z/rfq/xt+nzq8A+z2mH7UcuBf/2/x90PZo5gAAADAadwZBgAAAMBmCMMAAAAA2AxhGAAAAACbIQwDAAAAYDNWhWH/5J/8k+qzn/1suAwAAAAAbjthGAAAAACbIQwDAAAAYDOEYQAAAABshjCMq3HvZ9V7T39dfed+sIwr8frjX1cPnvysejlYdro3q8dPP6iePPzyaNm9hw+qp7tlTx+/OVp2OV6oPvz5M9Wv3n8hWHaJ3q6+9WQ3nh5/ECy75e5/vx2PvVswLu/v2vHpk7eqe8GyaV+v/sP//N+rf/inXw+Wndn9X1YPdtfrvdF15IPqO82yT6pv3Rt+X+vGyn79qMwN+Ec/qv7hf/+P1b+Jlu215/XTd6NlAABcMmHYnXAbJ6YLdRKGnV8zYZ2eaArDrs6jnzxTVT//VPVOsOyumh8vdzgM2/ty9fDJNY3LJoB7UD2cODePCcP+zb/479X/+J9/tDJAO0LRtXouDBtYuEZdt6YNlwKxd5+rqo8FYgAAWyMMuxOEYezc0jDs0r3z/rO7yfJz1aNg2V0mDDujM4dh9/7pf1sOcc7k5YefnO+6ccvCsP7uuv/xL/51sOzgUs9xAACmCcPuBGEYO8Kw6/fGp6pfXehdI8KwMzpnGNY83vffq//8j4NlV+Cs141bF4btFLVn+7hk9ZPng2UAAFyiiwrDmh/1zaMctewHefQjfRTYtBPA9x6+3ZWPt3X4f9L7R0dazXr9tmvd9vfbyScczT5+Wb0+tZ18/cy6oOlwbE3999up95+VTY49K1Nap6Zc3W7dpLpbPmqja/eV6nN/++Pqn//Xgy9+d1zuMz/4UVLmn//XH1Wf+91xuVlL/buXtlFeJh3XmcGYasrV4UXSf0H/Fmom8PXjjwPDMGz/eGSwbK8JCb5f3e+Dib78MKDYl2kDt+ntZdvIyjT1efJWdb+vVx0+3HuretKUrbc/2Nb++85EUNHcMTL7eORdG0/purlDuYnrxVGhSduvj3fXhnTMZH2yk4+5ep3h8lo+7qZDppkw7ExjLjpH9gb1asrV9Wj225cZH3+tuSvsOh6P7MyHYfl4WbieNGN0JgzL/7bU16uo3JkVPXLaPC75bPXhG8EyAAAuzoWEYf3kb/hDfffd48EP/OhH+kQYlv/ozycLw8nhft18+8H+RpOO/cTgUK7ddj6Z6Op10sRhcGz7OnTfDetUt0myn6DM8PupOg1Cs7SN1oZ45/SN6ot1EPFX3zh8990/b8KJr/zgK9l3R4QVuX3/zrfB64+z/p5qp+b7fGwc7EOzuf4t0gUAScgwd2fYzLLB5H+/vAui9kHHvszhzpo28EjvtLn/OLvzpluv384+JKlDh2YfD6onTw6Bx37/zXr5tvPjrS3dLXK3x9N8CDK4XuzP8S4YWX0dGgRO+zbOg6oguMrHSW3Xd+k467YdBV6LYdhu2XD72XiqLY259Pus7MA+NMuPfzTmyh7rO9lgLEVG156d9m/T8WHYeP2FvyHn9I//Y8Fjp89XT707DABgMy4iDIsDpEz0I30qDMsmiPmP+HB/ybba7Yzu2GjKDNYrqlPtHJOG+NjmJi+9eBK0UKfwONrJ9PhOljlfr/7i739R/eIXsb/5s2idWHt3zp9XL2bfv/hXP67++d9+t/pM93mq3GrdhHN9X06000JfReFG3HcLwon9aWFYGh4sh1NhEDKSbicJ0Lr122XDcm0IMaprF56lxzw/Ob7r46koDMu2O7/OlLb981AqCSCbMTBxp1gYdB3EQWZtOQxLx9dM+b2JsR6eMwdRHdvxmh/zv67+8zU+Ilkr7dOia8nkNaodg+nY3WnKr7w+HcOjkgAAZC4iDCv6MR/9SJ8Kw7IJYG55UtDdQTFhv7+iOtXK6jVvYhvB/pr2HNS3dVNh2Pk0IcXwLp5ec+fOMKzo7vhpnHBHz8TEcDReu7bK2/ymwrBmkj4KFyZCgKVlCyFBozQM675r7rAZ6PebhAvJ+sP6dcHMhGR/C+8Lu+vjaf66ef4wLB47rf1dfZFkLHaB1WyZrOxkGDYel6PQamHM7Z0rDLvm94XVSvv0pDBsYky2pq9pZyMMAwAgIwzb/Ri/qjBsMfQpqlPtqsOwQx2atszqFB/vJYdhvfR9UNG7oGbNhRd9u/WTxKQdJ9ppaqLZic6DiwnD+lAiCTbS/a4Jw+LjyM3fGXbXx9P8dfMmwrDxnWGpPghLyx1/Z9hEGNaXLxhze+cKwy71zrDw78E1asKw/1b9h38ULNtrw7Bfvf9CsAwAgEtzQY9JHvEjffQD/VxhWGF4VVSnWuH2Zk1so6lDfyxxmZsNw67/McmxLsSIgo854cSwbbd9G4RlbkEYlk/Su2AgDjRmwo5zhWHhdtL9loVhJY/C9ebvFLnr4+k2hWFF42RiO+cLw9ry++0XjLm9hfqXh2HX9M6wgWsJw4669p+Rd4YBAJC5kBfotz+00x/0u8nc8AX6eTjTfa4f0zh/GLbTTAoWfvxHE4cwROomLCtDjVRwbN2+hnXMJ0btscb7nq3T2cKwM/rd71Zfqe/KGYYQzV08S3fptI+5JS9F73zthz+tPvroo+qjn/6w+lq2LOrfUZuN2qkby1E7Bf01FE1qJ8fq135Y/bSu90c/rX74tWxZHnz1d8hMBhozYUdJyBGVycOw/HO3z2GdysKw3edmf1PHkmr+NcmPn6seBcvu+nhqx0YUXNTWhWGz9Z4bH3vxXV9hmUG41YRMu22fIwxrtzXYf8GY2+vKTh1jeRi2+77+1yQXg5vzmerT3Glh2OFvSf637Tr41yQBAMhdSBhW6yZv3cQv+kF+CHZq9Y/6dqJ4+HF+xjCs1gViieGkY0UYNj6+tZOK8frxNg6T50Zd36ae0fHO1Ok2hmGN4fubauN3ODV39iRl4uCi9vajOlCaCy/S9okmnem4rNusbdewnfJtDra3Kgx7+1Fb7ygMq3WBUauesGd3zezsg4iRwQT/XGHYThseHPbz+H5ap+IwrJYcXycKVLr3hk0/OnW3x1Mbph0cynTndnYtnApOZutdFIbV+kAsNRwDfb/ulz9+s+33Qd/l4+RgMMYK+39pzCXybQ62tyYM699v9Q//9Ovp91dkNgzrruPDMTIeK9nfjKFs/ORjMypzdt4XBgBA4ILCMObFk1uuUBR2cufM3h12nYyn8ykJaW/Qdd8ddrnKHju9Nec4AADXRhi2GcKwaye8uBDdXSM3PVk2ns7nlodh+xBHIHaS5vHIpTZsHo/0rjAAgK0Rht1x4WMnueYRGGHYtRNeXJBb8C/NGU/nc+vDsFobiPWPSxZd63/xSfV/Rt8nbuMYmnnUcuDffBR/n+j/xjWPRy6Fie15LQgDANgeYRgAAAAAmyEMAwAAAGAzhGEAAAAAbIYwDAAAAIDNEIYBAAAAsBnCMAAAAAA2QxgGAAAAwGYIwwAAAADYDGEYAAAAAJshDAMAAABgM4RhAAAAAGyGMAwAAACAzRCGAQAAALAZwjAAAAAANkMYBgAAAMBmCMMAAAAA2AxhGAAAAACbIQwDAAAAYDOEYQAAAABshjAMAAAAgM0QhgEAAACwGcIwAAAAADZDGAYAAADAZgjDAAAAANgMYRgAAAAAmyEMAwAAAGAzhGEAAAAAbIYwDAAAAIDNEIYBAAAAsBnCMAAAAAA2QxgGAAAAwGYIw67Ka1+qvv2D3zl466Wg3EvVV4dlfvCl6uVRmXP5bPXK/al6sFpR/96Qvm73P1+9GC2/IS9+89Xb22ZTbmlbXoe8v9745t249r/81jb7CwAAKHdBYVgdLPVhUhv8HD15+8LnqzcGk8DTQqqyEKqdeJ4Whs1PAu94GNb1yVdfC5bdqFvYrrcxwGnq9Gr1yheCZTehtD63rS1v5DxoQ/tbE4Yt9J0wDAAAWHI5YVgzSezDpHbydsyEsb8bIl13t72jJ1fCsLMQht1pzdi8dYHhLQrnSgnDhGEAAMDJLisM20+AjgzDuonmeSd9wrCzEIbdYbewjYRhKwjDAACAy3L3w7Bucnh4pDFXHjCtCaT6O8j2Tgyhjg/D2olqUpeBwwS2rUf9Oal7VO+8TY+eWHbHvrStZnI7KDNoq1E7JwbtFU2Q8+Cg+VyXyep1Ukiz1L95/0ST+Kk+TMs2k/yg3L6PZ9pxrylTt1u6z3HQUVanMvNtFIUXo/OhuN47+fgd7HeqDRvDOpS0ZWOhf8805orPg8ZCnVZrtxe2dS1vq5Jryl5e92mlfdeUq9s3qVe0n/z6tLad2vXf+OZL++0k19e8j0vGVF5mZxx8BufmaFv5scX9t3hNqeV9F/VvUZ0AAOD2uJg7w5oJSP8jvZlQlE+yetGkPLTbfjqx6CYC4Y//+SCgN5r8H2G+/oPJ0b4uQb2btksnhcXtkilZb3zcE+3VTcgm74gJ6j1aZzCp2/df9100USwz07/BtvuJ8uE4xn3Qlgn6YNhOs/WeqdN+sn3Y/nh/ZXVa0h9r7LCtaJy06w6Ot6jeh3JJu+y+G42baLyETuzfwZjbf9fVcVSnEt32JtctGnNrteMhGmvjPuivM/NjdTSe11jou3bbO/sx1dUpGWPBMRWPiV5/rG3bNm1x/9XqjXqsZNtq22nhOrfUt42Z8Tjw8lvZcQRjruiaErTJ+HwtqxMAANwmlxWG9T/Gmx/w6yda0aS81PS6ZROF8WRpvfn6x/VI12nLjCa9zSRpzSSxVnLc7YR0NPmL+m9pohhM2kbrRJO9nVP6fe444+1m5aPjGn0X7WOufWeWrWin+TqtMVfXuJ1G50NJvYMQb1K0vdB03Y/u35lwadFCPxTVabWp+k58n9cxauvi9g8srFsynprPE+1U3i9du3bbaffR1SupY+F1rqhNjh07+XrRmMi/m2iPpn+H9Ty2TgAAcHMuJgxrJkDdj/h4orMsnkhGuknDbgKQCNeNJh1jo8n/EebrH9cjXaed1IyOqzM1AZ/UTO669aN6dZPm4T4OsknhQggQTiTzdSa2cVrbT/XvxERyJx2fXZsP1o/q0/TT8LvZ9pgZcyXtVFincvPnQDRuR/s7oX9DRcFD7cT+Det0QnhQ0O/LY26tifo2dYnaMKtHV+fh+uXX2sBC35WMp/Z8mjAxTsfSsZHsY1jH7vjDfSXH0W2vWzY1jtv9dOWm6jqxz1EfzF5Tyv8eFNUJAABukTsfhs1OanaiieGUfMIU6ycsabnpyV06YZpStu9503WoxfVI1zlhkj4nmZjNTb5mLJU9ISxp2v7Yiflk/7bfR22Z7q8fT0PjiX4y2exM99PMmCtpp8I6lZupz040bkfnwwn9G1oIVA6m6t5+v9i/YZ02FoaFocoJ17qFvisZT/PXylLp2Ej2MazjmnHZaerXtdXkOGn20ZUbHku3v3TMjvuwre9hP7V0X0eM06k6AQDALXMhd4a1k5J+stFMJCYm3rO6ScT8j/94gjA9uUonTFPyydox5id4cT3SdcrqerTRpHDFZGtpQhlNkPN1JrZx9HhpTLdZ3B9Z+abeS/3ettPksY/M9GNJOxXVaY35cRW10+h8KKn3mvEUbS90Yv+GY+6IkKE3MYZ7RXVabaq+E99ndWz6clSnEyz0Xcl4Osf1Nm/XZJtJHY/v77g/M3l7hO2T16H9PDWOWieMm+LzCwAAbsaFhGHDH/btD/ijJpo7zeRjNEnYbX8/IRlPEPp14klL2YTiHJOzdhtTE5C4HqPJVjOJOb79ZgUTpLbOS5OyWtvHk+2YhwTd52TbQZAw32YlZvo3aMvR/oomjflEdslSnbL95e1SVKc15s+BfOz3YyI5H0rqvROOp926yedat+5ym57Yv0Ed1/fn0MJ5UFKn1abr2177htvu2mtwTcn792QLfRcFSOM6dO0YXrNLpWMj2Uc2Xttl+ThYMn/e9EbHNhpz3bEmbVY4BoPxVOLsfQ4AAGd2QWFYP/FoJxBrf7wnugnAQfajvpts7JfvJivNj//RBHBQZm88UY7KHVv/fTA32k48sYomjuPjD8osOkzADuIJedhW0QRw1F5pv6TbqZe1ddhPCsP2Pm7CVtS/tYU61/I+6yVjIOqT2toxl03SG10dhxP1ojoVW5rUd8v7/dTlmnoO2qqw3oey2faGy6fKrW3L2lL/hnUsDCKmFO5zcnmhqTGQb2/UVqP2zvp3YNR3pWb6LrqmtXXM26H8GhVLx3Wyj2C8hmNq0FZLyxujvq2N+zff1ldfa+u69poyWW5YprBOAABwm1zMC/RhURhM3Kx4kt5/302mp+rdfX90qDKhqE7ZMpgSBu7990KTm3HN1xQAALhthGFsxy0Mw6YCgeT77s6MUb2nvj9RUZ2gSHf31CgMm/qea3HN1xQAALhthGFsx1IY1i1vH/OZcu47oyYeIctCgvyxp9ZV3aVVVicoEz2OuDP1+CrX4nqvKQAAcLsIwwAAAADYDGEYAAAAAJshDAMAAABgM4RhAAAAAGyGMAwAAACAzRCGAQAAALAZwjAAAAAANkMYBgAAAMBmXEYYdv+X1YOnvz54/EFcjo37cvXwyQfV06e9B9XDe1G5m3Co2+P70fKr8kL14c+fqX71/gvp9298qvrVx89Vj4bfAQAAwAW4sDvD3q6+9UQYdpvc3/XF0ydvVfeCZTfq/veFYTuPfvJMVf38U9U7U8sEYgAAAFwYYRhXShh2e73z/rMLYVd711j1k+eDZQAAAHA3CcO4UsKwW6p5DPKZ6um7wbKh0nIAAABwR2wsDPug+s7w3WJPP6m+NQpD8jJx2dcfR2V+Xb338O3Dtu79rHpvuPzJz6qX+2WNdl/fuf/p6uWHnwy288vq9aTcdXuzerx/r1bn8ZtZmbn3bwXrDzx5+OV0G9m28wCt+VyXaQKsfjsnBlkLYdi9hw8G++r2v1QmKnvvrepJVObp96v7TZmS95i1Zep2S/fZb+OgqE47zV1hE49H5uYepQQAAIC7ZjthWBdMDcOqPoCqw6j2uy4IG6zflomCsEFgFWy7fal/sF4SiA2Ct/33N313WxxQpdqw6xBq7UyES/N3hq0Iw5pQ5xD+tN+Nw6BiM2HYeNtduDeoUxs6DdfvygRB2LCdZus9WadBYLbf/nh/RXVqrHz88d3nvDsMAACAi7GZMGwcRNWy8l2odQjHou+ifeTftZ+TcKzWbGsYkI3Dt1pc1zl/Vv3NL35R/SL099VffD1aZ0oQdGWa0GUUcB3uXhqWzYOt1JowLAuQuqDp6JfNTwVPU9vNykfHNfou2sdMCLcYhpW001KdGs9XT9c8+uhRSQAAAC7IRsKwiXBqp7nzax88Td0Zlj62OHVn2OgOswl5uaheNyl51G50V1EXsPTLcwuBTer4kKcktJs1FTw130d3brX760OyqbuwkvpM3Rk21R4nhmFFdaqtDbeEYQAAAFwQYVgShnXrJ+HV+L1i/eOVQ+m2S0Ou2xmG7TXhzAetxXAqNl/29DDs7HeGFYZhSdv0RsFhu05abuIRydqJYVhZnWrH3Bn2bPXhG8EyAAAAuGM8Jjks37zna+nl9W2AlTxKOTJdj9S5wrBzPiYZyEKa9g6kmVBn4MrCsOauqyg4KjQVPBU9JtnWe+mutPhx0hknhWFldWp5ZxgAAADbtZ0X6DdBVxo8jV6OH7z0fqwwwAr2N3bL7wzrjMOv7o6ngqBn/OheKgy+sm2Pw7Bu/+FdT4WWgqfoePf7i8Op3JrQsHGGMKy0TZp/TbIw4PKvSQIAAHBJLiIMix5bbGXBVvdur8Py8V1g7fvAxpLAqgu6RvI7z6JySZlbGIZ1d0alj9tFgU70CGAceu0Drk5691K6nXpZfkdVvn5f7rCNUlGdO1HQNFg+2l/YTrVhW/XB2tjhzrOSOpWEYTtFdep07wH71fsvpN/nvC8MAACAC3Nhd4adJnpZ/uH7LliL/sXJWvf9bb/L6y4ahT43rg2wxoFcF2x1odVUvdugbcUdY0XK6jS0fHfYyscpAQAA4A4Qhg2M/pXI6Pvubq9RGDb1PSe7dWFYdwfW1N1i7ffd3Vyjek99f6KiOg2+b3Rh10Qg1jwe6V1hAAAAXBhhWCL61yR3sscf48cyl941xrGWwrD2TqsFwZ1RJ2ne7zXeT/ri/YlHIM9dl15RnXJtIDZ6XLJ5PFIQBgAAwOURhgEAAACwGcIwAAAAADZDGAYAAADAZgjDAAAAANgMYRgAAAAAmyEMAwAAAGAzhGEAAAAAbIYwDAAAAIDNEIYBAAAAsBnCMAAAAAA2QxgGAAAAwGYIwwAAAADYDGEYAAAAAJshDAMAAABgM4RhAAAAAGyGMAwAAACAzRCGAQAAALAZwjAAAAAANkMYBgAAAMBmCMMAAAAA2AxhGAAAAACbIQwDAAAAYDOEYQAAAABshjAMAAAAgM0QhgEAAACwGcIwAAAAADZDGAYAAADAZgjDAAAAANgMYRgAAAAAmyEMAwAAAGAzhGG3zRc+X73xg9+pvvpasOwkn61euf871bffeilYdl1eqr66O7Y3vnnCGHrtS9W3d9vYu//56sWo3Ale/OaryT5Oqu+t1fbFt3/wavXKF6LlAAAAcJkuKAyrJ/dfql5u/ncb/BwTYjRByBUELMVOCMNefmsuHLqAMOzKgsIpC/W99vqc08bDsCZUFQQCAABs0eWEYU0w0Ydh7UT/mJBCGHaVTgvDrr9vLjkM2zhhGAAAwGZdVhi2D0qEYePldz8Mmz++qyAMu1jCMAAAgM26+2FYF0gM3/GU6u8WK1MahjXlhvuJQqb8/VZhXbqQKim3JmBpA5t8/d4hyDk8OprUPTrWvE1PCKCaAGu4rZ1RuJS300RgtxyGjdsiaccwvJoLvOJlo75PrBtvvbyd0jpO9N1wX5PBXNcm+zbN22h6TDbHnfTNODyaPw8K6t1sf/d5v596WV/HfH/5uZItb9qg/i4rN6hTNB73rjVoBQAA4KZczJ1hzWS7n8z2E+ysTIlkOxPaCfVw+93kfbhePTEPgoF023lQsTMZaiybD4sGAUEejAz337RdGjIsh1CR6eMdhkttSDJsy269vk5JGDN2aKd6vbTP220PjuVMYdjeCX11kB1vbbTdkr6L2nsn6M/euO17g/0NlufjYPk8KKh337/NOvWyV6s37g8CrWy9pC/yY+vaLRkX3fZHfTTTLgAAAFy2ywrDkgl2NMlfthiGTQUgBZPrPHwIw4gTApaiMGwfLrTSddoyo/CnqdPK4CBsjzzQaD/HbTnuv9WhXN6WYdsGIUvRsp0T+mpv7lj3fVXSdztBm8+12WIYlq2XlJ869qQOBfVuyvfbadu7LZ+uG5+X2Xhd079BWwEAALANFxOGDcODeOJcZnHdifAiCnaaOtWT+8Rh3WGd904IWOaCj7JApQsjJqypU9yOWTDRHWu0ryiomD++nS5Yye3rvSYsWVy2c0Jf9dqAaVznxv5YS/qulte3/TxVv3bfM2FYPjaHis6DgnonodSw/um6zTp1m0T67QvDAAAAKHDnw7DZSfLOZJAx4VxhWFuvdLKdhw9NmTxwuAVh2No2i6wJw0qPdfb4uiAsqXu+/TVhyeKynRP6qjcdSA2VhmFZu0+O1db0vm9pGDbV9701/ZvsFwAAgC25kDvD2olzPwluJs5zE/kZcYgzMBWAJJPrOATIw4dwgt9s57iAZT4wKAgmJsocIwxaurY7BBMLYVNm7vjm9rdvyzVhyeKynamxsEZRKFPSd52mTu326uVzbXtSGDZ17AXnQVLvpPx0GDZd14E1/VvU7gAAAFyiCwnD2glvOwluJ9FzIcCcZtI9GSjVukl6MjFv9z+c9OdBRTuZz9bLg6/u87FhWLuPqQl+QTBR6+pwbPvtdcHEfjvd53zbfbuUHG8Y/vTycGOwv8O282Ck67fku6GJICVbPhsaLYrGU66w7xr9+P/8rm7zYc90wBTvLxXVO2+Pgnon/TZs73zdbttT/V9bE4bl4xMAAIDNuKAwrJ9Q92HAcfU8hFaZaEI/WD7eXzd579WT+Gbin4YPyf6aiX673jFhWG26XgXBRG8Qyu3NhRBTku3Uxx33TdjmWT1rcfiTLd9vox4PQVsmdarLjOuUt+FBEBwNQrfJMou6vkm2M6z3ir6r9ccYtOG4vgdLYyWSt1XatwX1bupaEoYdlg/3FwWgRWFYLR/nx4xxAAAA7pyLeYE+AAAAACwRhgEAAACwGcIwAAAAADZDGAYAAADAZgjDAAAAANgMYRgAAAAAmyEMAwAAAGAzhGEAAAAAbIYwDAAAAIDNEIYBAAAAsBnCMAAAAAA24zLCsPvfr54+/eDg8ZtxuSt0//Fuv0/equ4Fy1a591b1ZHcMj+8Hy+64Rz95pqp+8nz2/QvVhz9/pnr67vA7AAAAgKtxYXeGfbl6+GS7YdjZ6nAF3nn/2ar6+LnqUbDs0+8+t1smEAMAAACunjDsTIRhM5qw69nqwzeCZZ3ZsAwAAADgTIRhZyIMm/J89fTjZ6pfvf9CsGyofVxy/BglAAAAwPlsLAx7s3pcv1Ns70H18F5eptvGoNyTh1/Oyuzk7ymrHRVEjfdXS8OwuXrny1Kjui+8X60J1OrvknLD/U23cbPu0+9X94ffN3eFFd7xVXAHGQAAAMApthOGdXdcDcOhew8fNGHPMHi6/zgLyLpQaFimXS8td9xdWV2QNaxvfmdYYb1rS3Vo1xuGVeP2agOt4Xa6MoPtRsffH0sevjUvzf/5p6p3Bt9Na+8i8+4wAAAA4KpsJgyLg6KZ8GwvD3ni0OeYMGwcTu1kYdiaes/Xoa13HqC1Yd+hDtE2xvUM2qDZTh6QtY8+Lj8i2fOoJAAAAHC1NhKGtd/nAVatCXqG4U8XRrWPBx7s122W56HPcWFYs05e1yQMW1Hvndk6TBxX63A8ZWHYuFx4LMXvC+sJwwAAAICrJQwbhkp9YJSsn90FdcfDsNGdYZloG1EYlrbDxF1nR94ZVl4eAAAAYB2PSQ7Lh4/6RWFYHvx02zkmDMvXyd5RVlTvzmwYFj3aGCgOw4ZBXV3nif16ZxgAAABwm2znBfpdyDQMg9qQZxB+jYKuNkBK18uDr+5zXW4yiJqQBV/95+i72XovfJ8uz4O8VHkY1n2/K/twt85kyLbmX4j0r0kCAAAAV+wiwrA+5BnLgqEu7Dosnwh4BmUe3x/cAbUvdwjJ2jKHYGhVGLaT7K9ZP3jksKDevSbMGpTNQ6qwrQbh4Zow7NAO0/Xp7/Zafg+Y94UBAAAAV+/C7gzjViq44+ud95/dlXmuehQsAwAAADgXYRjXonl32FQg1oRl3hUGAAAAXD1h2Nmlj1BOmXtv16VqArHRY5Dt45GCMAAAAOA6CMNuyB//8R9XP/rRj6qXXnqp+fybv/mb1fvvv99835f57d/+7erhw4fNf/vvAAAAADieMOyG/OVf/mX14x//uHrttdeaz7/1W7/VfH706FH1mc98pvnuT//0T5vvvvvd7ybrAgAAAHAcYdgN+f3f//3qT/7kT6rf+I3faD7X/60/v/nm4V92fOWVV6rvfe97zX/77wAAAAA4njAMAAAAgM0QhgEAAACwGcIwAAAAADZDGAYAAADAZgjDAAAAANgMYRgAAAAAmyEMAwAAAGAzhGEAAAAAbIYwDAAAAIDNEIYBAAAAsBnCMAAAAAA2QxgGAAAAwGYIwwAAAADYDGEYAAAAAJshDAMAAABgM4RhAAAAAGyGMAwAAACAzRCGAQAAALAZwjAAAAAANkMYBgAAAMBmCMMAAAAA2AxhGAAAAACbIQwDAAAAYDOEYQAAAABshjAMAAAAgM0QhgEAAACwGcIwAAAAADZDGAYAAADAZgjDrsprX6q+/YPfOXjrpaDcS9VXh2V+8KXq5VGZc/ls9cr9qXpcpW6/u+P76mvRcm5OPv5erV75QlTuNunrfBfqekX6a8v9z1cvRss37uW3tM31Kvg79oXPV2/slvkbAADAbXFBYVj9g7z/Ed4GMG9888i6dj/cZ3/cFysLoV785qsn7mdpEigMW6UJHG5Z4HLWOt3UeJhQPFm+bWHYDbTjnQzDzthOC+fBzYRhh0Boagy31/i2TGPYFn2fTjmi3W6iHSb/jgnDAAC4ZS4nDGt+bPc/wtuJyTE/vPsJS7rubntHTyrKJoGXG4bdUZcehjXnyy06vjs7WXZelbnwMKyu026fr9T7Do6xqVN+fd+tE/8fNsf//RoShgEAwLTLCsP2P/yPnEx0P9iPvqMsJAy7ky49DLttxycMu3CXHYY1+6yPralbfh1v/x6V/10RhgEAwFW7+2FY9yN79FjJXnnAtCaQassO9nNiCHV8GNZOnJK6DBwmYG096s9J3aN652161ISqO+79dsaT16Yeu22/3Nen3s9+34e2SCea09sbt0Ve5tAGU9tq9pVsY+Codhj3z3hCmLfVzmBf56/TzlygEE5c8wn9xHgKx3B+fIcyo/MoMdxW3o5T58q4LdPjWFPvGQvXnWif08sLJWN2Z3RNadvoq68d2qreTz9+9n3X1L3u+6xewTVq1D95mX34M7GtVe00r/Q8iK8XUf/m/TJxPizq2z3/3+nyqH1j0TZKHfo+cjh/W4v9W8vH3cw1p91e0NbnGnP78ZTuo18nPz4AAJhyMXeGNT+G+x/p+wnauNycZhJVEi7stp/+6J6b7HQ//hcmQpOTiBXm6z+YhOzrEtS7abt0UljcLlOCbdb2k556/91k6Y37dRu09erb+DAJPrRP+92gvbpJ0rBf+u0fJpXDiVi2rfz4Juq8Tr2/tE/bOh3ZvifXaX6ivB8HXVtGE/pD+xaOp/675Ph23yVldsJ9xqbPlWD/TZsdU+9S3fYm1y2p01pT++z21Y2Rely9cX93Tu32k7TZPlAY1CE4f0bnWL/9YV92xxJtK+3LpXZaYeE8aOs9rGe373wMDutcO/b8atbLrifZce6vdUXbb+t2XBh2sHRdKenf8fWqP3+i82/m3ByMuf1xBeOkaMz12+rbOBi7AACw5LLCsP7HcTY5KbU0eZgzvW7ZJHByErHCfP3jeqTrtGVGk4pmsnHEJLE3MclMJlrJhCadqI4nSIfy/UQqPvb8mLvPWbmw7Y+dGC/J6l06PhrnrNPctkZ1rOXhQcl4mui7SLjP2NS5MvV9NMaX6l1uvv/K6rTW1D674KD7ftj2ST2Sc+2wflKnqf7Ix03zeWms1FaM8yUL50HUtnk/NJ9H7d/WMW+XJc3+Bsc11ed9m7ah2Nx+2vYrORfmzI6xov6N+nFn5lxdOvZ8naTtSsfc/ru67BnHFQAAm3IxYdjwR3U80Vk2O3lIdD/Adz/GE+G6ZT/WJycRK8zXP65Huk43mZ5w9ORsYvKaHHMyEUonYfFxDctMT2LTsbBi4rQw4S7WTdpm23JYZrL/ds5Vp9rctsJJaT4xLhlPK9p7ZoKdmzpXmn1H+2qOtS9fUu815o+xrE5rTe1z+ryZPtcOkjKT9Wv3sV+3eEyuGAtLFvYZ9WU+Zpoyu+MIrapjfl7sFIzl/f7DfWVtfKSoHfZK+rc5jqid276cvN5G250bc30dS8dcp91X3Y7ROgAAMO/Oh2Gzk5qd6Af7lMkf8oluUpeVm554lE0Cy/Y9b3byM1GPdJ1gYncOE5PX5JiTyVJaj/i4hhOkhcnZft2yvmgUT/JnNNvI6jU3Ue6WtWM3GAvnqFNvblthHfOxUTKeVrT3XLtkps6VZt/Rvppj7cuX1HuN+WMsq9NaU/ucPm+mz7WD5FyZrN/wvNspHpMrxsKShX1GfZmPmeP7O9PUZbetyMKxtnWKjiNr4yPNHmNJ/zbjJKpf25eT19touxNjLqlj6ZjrNOvW7Vw0/gAAIHUhd4a1P877H8vNj+RjJl3dD/boR/5BOuHsTU88yiaBk5OIFWYnPxP1SNc544R1aGLymhxzMllK2zg8rmyiFh97fjwrjm9hwl0i7NOJSWFiqswZ6rQ3t61w//m4LxlPS2NyoKRdOlPnytT3JWO8uJ4j82OqrE5rTe1z+ryZPtcOmvL9NkvHYPGYXHHuLVnYZ9S2eT9M9ctaU/1Ysv22THQccfiz1uwYK+rf+G/d3Lk6edzhOtmYKB1zO8O2mz1OAACYcCFh2HDy0P7AHv2AL9T8sB79IN9tf/9jezyp69eJf5CXTQLPMTmbnlzV4nqMJhLNxOP49gtNTF6TY04mQtOT+nbddnlyLEG9x+1R1heNrj4ntUN+3N02x+MrM9FeZ6lTb2ofjXwS3LV38l3heOqPOSm3296oD4I+nTB5rkT76sbFob0L671Ce/5PnLtFdVprahyn/TY8pulzrTV5riTHFfTR7DhKzbbTGgvnQdSX4zHTHcuRfd5q2yisx7CP6/pO9NW4Dw/Ljh8frXGfDpX1b9tnwbiYaLelc/MsY27U/3NtCQAAsQsKw/of1TMTlFLdROYg+3Hf/RjfL9/9CG9+2A8mCO0P/UGZvcGP/3w7A8fWv528RNvpJhrZhCGaOI6PPyizqJugRLo6JBOnZLLUrtvXPT+mWtg+o/bMJ2VxG0zK2+GIiXNa97rv22M7TAqjdhpOEDNnqFOj2U7pfupy+Xm1YjyNjjGYLNfm+q/4XMn3lR/jmnqX6rY52G8aZCzVqczyNaXdT3LedMcUnWvpNuI+yc+90Xm3NI4SS+20wsx5EPVlcvx7K8+9XHLNynXb7sdZXt+d8BrWaNc9um0GlvpvsX93RuMuv34WnZtRWx8x5vp2zM/V/vvSazsAAJt3MS/Q53JFk1vgSLMhDgAAwOUThnHrCcPgjIRhAADAxgnDuPVuVxgWPe4zJmjg1hKGAQAAGycMAwAAAGAzhGEAAAAAbIYwDAAAAIDNEIYBAAAAsBnCMAAAAAA2QxgGAAAAwGYIwwAAAADYDGHYVbn/y+rB018fPP4gLnfxvlw9fPJB9fTpB9Xj+9Fyrswbn6p+9fGz1YdvDL//oPrOcFw+/WX1+nCdO++F6sOfP1M9fTdaBgAAAJcUht37WfXebnL/nVsXuLxdfevJqWHYObZxU+5oGHb/+7s6P6ge3guW3ZRVdXq+evrxM9Wv3n8hWNZ6+eEnFxiG7bz7XFXtjl0gBgAAQEQYduW2HobdUXc6DGvvjqp+8nyw7OBiw7Cdd95/tqo+fq56FCwDAABg24RhV04Ydifd4TCsNAi65DCsNBAEAABge+58GNZO6H89IZ/od6HSfvkn1bf2wUK77L2HH+zLvPfw7cP290FUX26wrDEVKiwFWfk7nAaBXhfwDZcN5cHf64/nl1+vw+ORrXGIc+/hg+rpk7eq+/V/6zK7/33v3lvVk6b896v7Xbn7u7Z7+vjNLgya3t6nP/1m9Xi/PCrT1unJwy9PbqvZV7KNgbp++22VyusUPS6at9XOYF/r6tSGQHOPR/bmw7D8XInHUz7mevX50ZeZPEeTc2Lu3Dwsb7abvI8vLzfQPC6ZvzMNAACArdvQnWFt6DScpLeT6n4yfZiM19toJvBPPqneqyfsE+UePPlZ9XKzre67/eehblky8R8uS8OINjiIg4DpQC1YfpvulJu4o6kJw+pApw66mhDsQfXkSR2CtQFSE1rtyh3CoCwgG3xu1z+sM9z+IXwahk7ZtvJQ6Sx3htX7G9Rxp61Tut1w/5GSOjUvzS97X9Z0GNYFtMPx1AVQw/OnDcIG63djbhyEDcdzsO3Fc7PWjfF63cE+mzqE512tfW+ad4cBAAAwtJkwrA238klzO8FuJ+HdZLsrk0ziozAs39Zo8t4Lgqo54XEsbKPZ9zjUaIKC0v02vl79xd//ovrFL2J/82fROgVmw7Du+yTMisKwNFTqy/dBVxwodeFXHbYNP2fl2npk2z9LGBbI6j2u44ySOjV3Q5W9K2sqDJv6Pg2eojE5/i4Kq/Lvls/Nw+e83FRdWx6VBAAAYGwzYVgzAW/uKgk0k/d0Ip9MsqMwLAkBdib3P1G+12y7q8fAmjCsret4G41RyHADZsOwLoRKQqIgDBsFXcMybaA0vCus1+xjv+6Zg6cSzXZ2+8wkj0oOy8zdIVZQpzUvjp8NvaKxloWu7Tk1WD84B9p9DEPi8V1gy+dmXW7hPAoJwwAAABjbVhg2GwydIwxbeWdYF4Qlj4eFx1ESho1DjVvjCsOwtvwtDcO6kCup1+jOsIFuWRuMZXeq1UrqdIY7w0rDsHb9XdmBZCzv10nL5NtePjdrx4dhJe9PAwAAYDu29ZjkbGB0YhiWBQUH05P4sE5HhGFp/U5xE49JHhmGNeUP21z1mOQ1hWHJ8fXmwrDeVJmSOp3hnWFT36ehVXuH19T51mrH7Sggyyyfm7WFcyDknWEAAACMXU4YFr6YO1g+eQdKOtleFYZ1AVY86Z+ZxOchVred+u6ZPGRoHyWbCgy6fSwGCjfk7GFYuzwJtZp9pHdhtdsf7ndFGNbVJ7rbrFh+3N0263rOhmFToVdRncofDZwMofpxOByzzVgdjsvgpfcjpQHW0rlZK93WgH9NEgAAgMAFhWE7gzCplU/0u0l3Ig65FsOwbDt5eNWuPy6X38HVhlzDZW0dx3fcjPeblimr1/XpAqtIF0atCsOG6w+WJQZhUyt/1HBFGFbrAra90Z1ny9K61wFXe2yHMCxqpyAI6xXUqX1v2EQINDpHDtJgKz9X0nHb6AKykWGoNbm/NedmbW0Y5n1hAAAAxC4rDLsWayflnCp+BJJp1xAEdSHXKGztvm+DtTbgGt891gVfV3gOrfmHBAAAANgWYdhqwrDrJgw7QvfusCsLxEaPTQbfJ8HYoMzU9+fSPB7pXWEAAADEhGGrCcOu2+0Kw2Ye/xyYfSfYdWkCsat7Z1b8KHD2OOXEo5RX9/hue1ecIAwAAIApwjAAAAAANkMYBgAAAMBmCMMAAAAA2AxhGAAAAACbIQwDAAAAYDOEYQAAAABshjAMAAAAgM0QhgEAAACwGcIwAAAAADZDGAYAAADAZgjDAAAAANgMYRgAAAAAmyEMAwAAAGAzhGEAAAAAbIYwDAAAAIDNEIYBAAAAsBnCMAAAAAA2QxgGAAAAwGYIwwAAAADYDGEYAAAAAJshDAMAAABgM4RhAAAAAGyGMAwAAACAzRCGAQAAALAZwjAAAAAANkMYBgAAAMBmCMMAAAAA2AxhGAAAAACbIQwDAAAAYDOEYQAAAABshjAMAAAAgM0Qhl2V175UffsHv3Pw1ktBuZeqrw7L/OBL1cujMufy2eqV+1P1YK2X39q15f3PVy8Gy+6OfPy9Wr3yhajcbdLX+S7UlZtw8+dmO0bf+OYN/a38wuerN3b7/+prwTLuiO7vtX4EALgyFxSG1ROQPkxqf0gePRnpJhPnCanKQqgXv/nqiftZmgTe8TDslk3w7n4YdsvGQ3H/3rYw7O6eV3d2DDf/R8N0/9/pMOwc1zlh2C1Wer3oyulHAIArczlhWDMB6MOkdjJyzI/INpTK191t7+jJVdmPX2HYAmHYeTXteYvurrqzE3hh2LUThs27s+fSFtzxv8MAABfkssKw/QToyDCsm0Sc9/EWYdhZ3LIJ3p0PwxYChWt3ZyfwwrBrJwybd2fPpS0QhgEA3BZ3PwzrfvgfHmnMlQdMawKp/g6yvRNDqOPDsHbildRl4DAha+tRf07qHtU7b9OjJ5bdsS9ta+b9aqN2TgzaK5og55PC5nNdJqvXEROTZsJdr5fUfWKCnh3feJI81Yft9vb7StZpNe1zTP/MBQrhZDqf4E+Mp3AM5+PgUKa4f0dtNHWujMdcehxr6j1j4boT7XN6+Qr5uRJuK9/fsJ9LrxdlouCpbddBezZ1rj+n+z5qX4P1E4M6xOdm1L9z7bROVLf8+EZjfVDn8vOgNu7DZAysuM7N1Wnv5DG3Vr6toO/yOuX1Lhlza/4e5PubuB6n42DQBsXXi/J2HPVdUqd2Oydf5wAALtjF3BnW/ODrfxDvfwiPy82JJnah3fbTiU73gzv8gdz9uJ348dxrf7Ce9kN1vv6DH9n7ugT1btou/QFe3C6ZkvXGxz3RXmFAMxDUe7TOYEKy77/uu3ziumQ/6RkcX3S8/URkWO8Xv/mlQT3HfdCucziWuXZsli2MrYPxJDrRbyds63bdQzsVjqf+u6T+u+/yOi/178D0uRLsv5vErq93qaXzu6ROhYraqN1fsu3o3NgpOT+XTI/5Qf90x1vb1737rqS/RyaOp9fUqd7fvl5dH+VjsLCd5pVvO+3viTG32Mf1/tKxn18v+m0k7Rttt6ROZx5zy7o65O05qNPoePfndDTmDuWK2qlbb3i84+tNdM4Hdai/eys9N+J1J8y0YTvGh/vK262vz3BfQf8CAGzYZYVh/Y+85kdkOmEoccrkcHrdsh+/4x/c683XP65Huk5bJp0g7TSThrUTm5Ljbn+cjyZaUf8tTcqiiUO+Tvc5P75j+j1cJ2+nif0louPKvmvGRr+vZB8T/VViZqIV1qnrq8O+SsZT97lkXIf7jE2dK1PfR2N8qd7l5sd5WZ0KzfVZJxkre/E4Of6YD6JtjI65qXfet/PtNmuhHUrqtKadZoV1yc+VWNj+K86DvXydiW00+1to71GdzjzmljT7D86Xg4m2zY85qndRO+XbL/sb1Y6v+XZqrRj3U20/0b9p+Xg/4ZgDANioiwnDhj/04x/ny8p/KHY/NHc/SBPhumU/fvPJ2jHm61/y47j94T86rs7ox/eS5sd5t35Ur+5H/XAfBwsTmdzRk5/j2j5u62ziNDWZSXRtPuiXUX2a7bSf22X9ZK3t09X9UpurW9hO+SSxZDyVjf3GUv8OTPVXs+9oX4P2K6v3GvPHWFanUt2+6vEy0VbN/rrlI2c75oNoG/H4HY+1o/c/N3Z3Suq0pp3mNNsdHUN+rtTSvtvL1y05D5rjH29rv87cdS7ZX0mdzjvm5s2fS43m2KK+b9fdt3k0RvJ2Cdsp67uuTHhsg+2Xj+WCY+xNjfPm++jaMfz7E+/n6HMOAOAC3fkwbPaH+E46IZk3NclO9ZODtNz0j8yyH79l+543/0O35MdxNIk7g2RCMTjGcDIyYans0ZOfqQntvLCt8+1PTWYS/Xgaio6j/e7lt3b/fW33udn3cPKz0lzdwnbKx0bJeCob+42JvolMnSvNvqN9JZPHknqvMX+MZXVar9luM1bS83XNcRx/zAfRNkb9MzHWJttmycJ5VVKncxx7Lb52TJwrWX+HdVg6D5pjz67R+ToT20j3t6JOw2W77Z4y5uYVXC+aY4v6vl13X69ojBS1U9Z3E22ZK2+DgmPsTY3z5vvo2jH8exDv53x9BQBw913InWHtD7/+B2vzg++YSVb3wzeZaIzkE53W9I/Msh+/UxP8NeZ/6Jb8OF7xQ/0Yo4lF3JahpUnJ0ZOf48ZL2NZ5HZbqXJuc2AzV7VRvd/ffZp91P+0+16FYNFkqMTXRqoX1zvuqZDwtjcmBkrbqTJ0rU9+XjPHieo7MnzNldTpevp0115Fz1CHaxqgO4Vhr263o3M/Njd2dkjqtaac54Xa6sXw4thV/MxbOg7n97dcJt5GP0xV1yuRlztWWteX9x/UeHXM0RoraKd/+xP4y5W0wf71ITI3zsN47SflzX+cAAC7PhYRh7Q/W9sfhCZOsnebHYvQDef8Dcvwjs18n/pFZ9uP3HBOKdhtTk8TCH8fND+rj229W8OO+rXPww36k7ePJdpyY6CTbDiYR8202bTypiOvXjo38mAcv0J+a8CS6MX3/1X2/NPWuPx87Zmb3m08Au2NLviscT30/JOV22xv140L/DkyeK9G+uvF86PPCeq/Q9vFEPxTV6VjRsXTtWHAsx479obwv2s9ZewRjbbbNlnRtOnWNivpyPGbK22lWXpe+v5P6jfupPf5o/wvnQd6Wg/2tu86tqdPQaWNuUX88+fZH9QyOZbj/6PqWt0vQTv2xDMdWP6bnz9eoDXb1Gr1Af8XYj46h0R1vNJ737RT1U3xuAABs1QWFYf2PxvZH4NREqUg3WT3IfrgOJiCN3Q/O5gfz4EfmYVKYG/y4zbczcGz99xOa0XZW/DgeHX9QZlH34zwR/bCfaKusno1Re6X9km6nXtbWIZ/8HMr05Q7bKBXVearP8rJ5ubzPonJtmWDsHDuxmZxodZIxUJfLz6s1k618LEy0+Vz/Fp8r+b7yY7yKSWK3zcF+own2dJ3KFJ8nK869fOxNjeFp2bHX9WnGzqDvznI9yeTbHGwv6su27fJxV95Os5K61PvIz5WdfPzu2qmpU9QOc+fBTtpndX3b4ziMuei48mPfKajTVYy5Zfm2xnUf1SuvU9Mn2f67483/HkTnan4elLVDfh2YOv6560XUjp1sf/PnbrePaJ1Tzz0AgAtxMS/Qh0Xh5OdmtZOsqcnesZNJuEWiYAIAAOAGCcPYjlsYhrX/7/44DJv6Hu4cYRgAAHDLCMPYjqUwrFs+fPRk7NyT+vEjMw2PsnAphGEAAMAtIwwDAAAAYDOEYQAAAABshjAMAAAAgM0QhgEAAACwGcIwAAAAADZDGAYAAADAZgjDAAAAANgMYRgAAAAAmyEMg8SXq4dPPqiePn4zWHaLvPtcVX38XPVo+N39X1YPnv764PEH6Tp33Rufqn6VHzMAAACsJAy7cW9X33pygcHFGve/Xz19+qB6eC9Ydu3uQBjWhELPVE/fDZY1LndMPfrJM+MQEAAAAFYQht04YZgwbI3nq6cfP1P96v0XgmW9Sx5TL1Qf/vyZqvrJ88EyAAAAWCYMu3HCMGFYuebOqJ9/qnonWHZw4WNq8c44AAAAmHY5YVj+vqSd79zPy3Uhwb7MJ9W3ogDm3s+q9wbbyUOFlx9+Uj148rPq5U9/UH1nUO69h28n5UbbadaZWJZJ657up3HjQUcXGj0dePJWdS8rd39Xz2GZx4PjypclBttqymXbvvfwwa7c96v7/XdNoFZ/frN6PNjOk4df3q9Tpj2uer12H/22BvsaSI8hCPTuvVU92S8fOtR12CYHh3ocvmvvClsOgZbCsHw8RedBMOaCsq8/jspk58LcedBo91WP+ebc2pf9ZfV6Uu6gLBQEAACAscsIw7rJ9jj8Gmon3MkkvQnQsiCgC9XycsNtDyfs++/zbQXbboKDURCwFFzczrt8ooAqFdxh1QVDo/Bn4c6w8jCsDZr22+++i8OmKYOQb1/34Fj25YYh2e67x4N6dsc7DLTa8Kxfpw3D4sAuCMqal+Y/W334xuC70MyY6c6V4fjux/NhjHdB2GD9tkwUhA0Cq2DbZefBIHjbf78w7qN/QAAAAAAKXEYYFky4c4e7uYbftxPuw+R9HAJEomAgDeTy7Q7L5PVcCruCEO8oX6/+4u9/Uf3iF7G/+bNonSlROJTZ36mVft+EQfl6ZwzD0uCroJ4jE+tkx9Puf+HRzui4ku/affVhWLPN/jibIC1d9533ny28G2p6TBUFslG4PPou2kf+Xft5+TyIz7u4rh2PSgIAAHCkC3lMspuE1xPqfBLfae9imTAXAgTaMGz6Ea7kTpdAuv0oVEj1d+40Zspdqy58agR3iKWPGGby8lFoNFAeho23Ea07byIMy8Kpou1O3Rk2WK/53Oyr22+/j2bdNEwsfzRwakxNhFM7aVg8DqeiMT91Z9hhfJeeB0cEvsIwAAAAjnRxL9Afhl7DyfXsXSa9M4dhZZP75TBsr7kDrju+pWO5Ll3g0wZd+Z1TaZgz6arDsLPdGbYyDMveX5a3Ue1wN9iu7O6/93efm/Cs2V9a9vQ7w0rDsG79fqw1xndeJiFtJ9126XlwbBhW8sgoAAAApC4uDOvl4ddygFUrm5Qvb2tFwLWqbKfgsdCxcz4mGehCsfR9XdMBV+LKwrD0McQycRiW768k7DsEXfHyRl3vuszuv00963bsQrHRumd4Z1gcCmflm/FVdq7MB8elY/uIMMw7wwAAADjShYZh0SS8nXAv3VHV3+2STPLvRy/QXwgLuru4Sib4o8fNFpQFe9dsFEb1j/3NB0aN4HHCoTiIyrYdhGFNiFay/0QQhoX16+76SgKr3bqDF+iXBGbtth9UT570de8CvN3n8R1t7b8m+av3X8i+z82EUMG4bMfTIFwtClsLA6yi82B9GOZfkwQAAOBYFxGG9QFWIrwbpQvEEsGkv5vA72XbKg6j8u3UwjCuCy8G5fbhW/fo5nDZzQdh0eN/0Z1dfSCWCv91xybMGpTLQ6bhduqQqCmfh2GDMrX8zqpCbYiWiv9Fyvz44jvThtvpHbY3DtX6sC8KB5sQaOKOqPA8aGRjfDSmxuNp+LjxUBJYReO7lo/xxfNgZRjmfWEAAACc4GIfk2RjgjvDbtrUe8WOu2OtV3p32PGmwt7kDrKp9+t136+5y2udF6oPf/5MVf3k+WAZAAAALBOGcRluXRjW3RU2CsOmvl+heV/W1QViU4/tJt93d3uNwrCp789k7s44AAAAKCEM4zIshGGH94zNOCWgCkWPk+6M3gV2hCt9gfz4sd1G9vhj/Fjm0rvGTtA8HikIAwAA4DTCMAAAAAA2QxgGAAAAwGYIwwAAAADYDGEYAAAAAJshDAMAAABgM4RhAAAAAGyGMAwAAACAzRCGAQAAALAZwjAAAAAANkMYBgAAAMBmCMMAAAAA2AxhGAAAAACbIQwDAAAAYDOEYQAAAABshjAMAAAAgM0QhgEAAACwGcIwAAAAADZDGAYAAADAZgjDAAAAANgMYRgAAAAAmyEMAwAAAGAzhGEAAAAAbIYwDAAAAIDNEIYBAAAAsBnCMAAAAAA2QxgGAAAAwGYIwwAAAADYDGEYAAAAAJshDAMAAABgM4RhAAAAAGyGMIz1XvtS9e0fvFq98oVg2Z332eqV+79Tffutl4Jlp3ip+uoPdtvdu8Xt94XPV2/s6vjV14JlTFjq325cTbTri998dbDu71RvfNN1FgAA4KpcUBhWT0a/VL3c/O924nn0hLILAw6T0367N+WqApoJS2HIHQ/DXn5r15b3P1+9GCy7mra+5v5btFAfYdhKJf3blVls1zZUE4YBAABcncsJw5oJfB9atRPKYybz/R0a6bq77U2GJ9fhmsMUYdh527ppz9vUXsKwszpr/wrDAAAArtplhWH7gOPIMKwLAW7fRFQYdk7XHobduvYShp3VWftXGAYAAHDV7n4Y1k3cD4805sofcWzvClsu35RrwpR24trvazSBzesWBjDpNmr7EGLh2PKwogl5ZpYvyd9blBq0SzP5rz+ndY/2d2qdas026uCm2W+/rSh8mGnLYNnQoe/aoKj+nLTHZHhWYDEs6cKpQX3ydioec3NKx1NTrq5vWq9wX0mf7BwbIoZ1y8dc1obdOnlbzY+5OAgMA9K8TlNjYLZ/876dGwe1tn8n+7W0TgAAAEy6mDvDDmHB7nMzOS0PwXrhhDgwDEn2E+18QhxMkMfbryfKaT3bbecT5ngCP7t8IigosrRuc2z18R/qOa73+ep0CDcObdV+N2y70rZc6ueu3vX+9nXvAqjJ9o/Mh2+z2+7adxiIFI25YgvjaRC4pPtK+66tU94HM9udUrLt6FhH46lkzMV1HI2JYH9pmdL+HSjqr5kwbLFOAAAAlLisMKyfgDaTxjQYKVE6sQxDlmTS3U64RxPapszCZHg0ea8thAwTx9scz9Q6c8I6DEST+nydM9apWSff1lIdaxNl5vu5MCxZI2qvzjhQauX7Wx5zayyMp3C7eUjTfh7te/W5F9flqDCsaMyV9G9bpvj8nenfRFG5qTBsZZ0AAACYdDFh2HDC20ykjwguSgOPqQDjYP6ukSRAaCbIC2UWwou2PuNtNI4JcJZCloJg4px1ivslCA2K2nKpn0vCkpVmQpDhuE006xzG2PKYW2N+PMX9n7V3VyZq76JgaC8O1UbHe7YxV9K/K87f2kz/JorKBeN68H1Un9qoTgAAAEy682FYM4kNJoe98aRyWmngsFxuakKbaSbHWbkwiCgJw84VlOyEdRgoDibOU6c4iMpClOK2XAq2hGFxu2VjemmMFMv6sTM63rONufIwrPjaMdO/iaJyU/teWScAAAAmXcidYe0Et58UTwYMS7rJ9dKEc3nSvRA2dMLthCHDwvZKJ+OlloKOgmDinHUKg6hmf4ftl7flUrBVEpasNNMWU2Mp319Z0FNqYTyF7ZaHMecKZ+LtNMc/PN6zjbmS/i07f/dKx3pRual2XVknAAAAJl1IGNZOINtJcTtpPHaS3k7CgyBgbTDRTHwX6pFPjrvJ/Xj/QTiQ6CbKZwtL2vacnHhHk/pRgHK+OuXBUFi/FW3Z9t9UKBGHDuM6rDAXgvT1HB1LWu/zhmEL42nUl7VxSNPWady+a+V1aT9n9cvrFPZv2ZjL+3K/v2H/dn1QdB2Z69+honLjdt5bUycAAAAmXVAY1k8yTwvDGt2k8yCdXBcHE6Pt7GSBymHiX6uPoZ0MjwOGfqJ/kJYZLx+XWWEQNrQGxxtN6sMA5Tx1StuoFfVveVuOt3nYXlfn6wrDGm0907qnZc4dhs2Op8IwrNYHYompEHVSVpd6/abNovOuL1cvi/q3ZMyl7V0fU7PtvH8Lzt9Duan+zft2YNBO0RhvZX1eWicAAAAmXcwL9LlcJwVR3EnnD/8AAACgJQzj1hOGbY8wDAAAgKsiDOPWE4ZtjzAMAACAqyIMAwAAAGAzhGEAAAAAbIYwDAAAAIDNEIYBAAAAsBnCMAAAAAA2QxgGAAAAwGYIwwAAAADYDGEYAAAAAJux0TDsg+o7T39dPdj7pPrWvagcx3u7+taTXds+/iBYdpr7u20+ffpB9eThl8Ply75cPXzSbuPx/Wj5Ed74VPWrj5+tPnwjWMat8vrj3bh88rPq5WDZNnTn5rmvf/d/OdjmzqiN++tutL/z1unRT56pfvX+C+EyAACADYZhVxfSbM18qLClMOz56unHG518NwHILQuTF+okDBs4V//d+1n13tNfV9+ZPZ/mwrCBc9SpCacFYgAAQGx7YVgzabtlk/c76qbCsNvlherDnz9TVT95Pli2AcKwu+1M/ffyw0/O16bnGlPvPldV7tYEAAAC2wvDbuPk/Y4Shn26euf9Z3cT7ueqR8GyTRCG3W1n6r+ztukZx1T9uGT1809V7wTLAACA7bqcMKx7TCd5Z83TX1av5+Vu3eT9G9UX/+uPq3++96Pqc7+bl/lK9bm/HZbZ+dvvVp9JyixrJqx1ONW0Qd9GUVvk71QbPv40Xjb03sO3u3JtGFZ/bu4a6cscM2G+91b15Gn7WOPQ+BHHN6vHSZkH1cPk2A6PR8bLD2XqRzDvPXwwKPv96n5SrtbeFbb4KFbS3sM22gkfL2vbeFjucOdN2v7Jtpr91GO+CyL7cqNAMluej4H93ZPT22nG0n79zNo+3td75tgaeb3TMqV1is+D4FpxTtkYSPpkf+1K69CfN6N2mBtPjYX+HWq2dfr1cD4My68ZC229VKe5tsx1j0s+fTdYBgAAbNZlhGHd5GgYKLQTyX7SNR/gzE6mrtLvfrf6yn/9cfWVH3xl/91nfvCjJuz64ncP5V78q+PCr9whLDhMRtvvhpPTeiIdTcrHk9P5CfBgQr5v364fTm3vLhxLwrDuu+F7xPowK3wv2P3vz4ZhTQD2+M3uuy5k23/uFEy0+0AjHZu/PLTlmjCsbrth2Tw0GIQE+3VH2x9ve7SdfTiT7yuvZ//9iWHKoN5z+3v9cbafI+u0Pw/2Y7cbq2tDvELptajW7S8KxPrvus950LU4nkr6d2ihrWZ17T9l1C8747YIzNSpqC0ThYE1AACwKRcQhsWToclJ1ymTv8afVX/zi19Uvwj9ffUXX4/WicUhV3cX2F99Y+Lz8cbB104YxmQmyhSFYVm/zK9TKAjDmpfqP3mrujcs1wdbeYhVWwrDsnXC7TfvJJp5RHIi0EiEbTsVhmXjNl+3CyfmttVsZ9T+bV/t91dYp8bJ59NOWO+lkKN2XJ2iMVgU0hylrWN6bDtNHbP97dth4tgLxlNR/w6do/92Ss/ronaerNOKthzwqCQAAJC7gDAsniBNTrrONPk7XRtyDe8K6zV3hw1Dsu/++UmPR/biCWsQKHST8lzexrcnDDs82piXbe4OG4VkO2cIwxbfF1Yy1laFYceGCAdN+w/6NNH31Y2EYeNtjMZKV6+83mvrFI3BKwvDJurcGtexrUe97LhrV1H/Dp2j/3ZKz+uTxvHKtuwJwwAAgJww7MasCMN63WOVbTD259WL+fIF8YQ1a7+mfbKAIQxHlibAlx+GLd4ZVjLWCoOns4ZhS+1fWKfGOc6niW00dc0CunQ8HVenqA2uOgzLz50pTd3q44zqf67+HTpH/+2U7vccYVhpW/aaMGyr/9orAAAQupgwLJ8Qt5PKqwjDrvsxyUAXig3fK1YinLA2E8xDe4ST1YlJ6PwE+DrDsBt6THLpnWElk/ewzNWFYUXbKaxT4xxhSriN7NG+sMwdCMOm6hho69DWe/pcnR9Pq4/jHP23U3penzaOy9vywDvDAACAsYt4gX4zERtMsNrP6Xd7Z5r8nUX3+OP4BfrRvyg50KwXl3n70UfVRx/tPBpPGMcT1nZymQRWeft0E/C6PfNJ+HDyPvy+tS4M+9oPf9rW+6c/rL6WLRsJwrA23IpeoB8FXjvnCMO6ifbcXSftWEzbaP6F512fJN+dGiIMddufCy7WhGFd2XUBRSaod35Oj+sUt9Ow7FSdojE42b5f+2H103pcfvSoejtfVqjd9nyINa5zd3zR+VMwnkqCqcaZrodT53Xu1HFc1JZD/jVJAAAgcBFh2D54qSeB/QSymVDd8jCsljz6GD3++I3qi8ny2lRY9rXqhz9dCMP6NupEgUFarm6rdoIdTUDzbR62ty4M24d4x4Zhg++bfwmy8f3q/nB5/69CRvbh15owrH9v2LPVh2+k3w/1E/hxG3WaMdkvr9s7uytqv41zhGG1Q5CU7rdbviYMqyX13ykNYnr5+hPbyNuxf9H82jpFY3C6fd+uHjVh2EfVT3/4tWxZubzujf7c6OuaH3P/fXYOLY6npf4Nl3eyfZWaOq8b3XiK9neoe3mdZtsy431hAABA5ELCsLHpye12zU5Y75Im9Jq44+vaLd8dxoIm9CkJ8W5Gf9fio7fj5dxSzTv95oNqAABgm4RhG3JXw7D7j9Pga+ourRvTPYolEDvSrQ7DujvDSu5Y5PbozknvCgMAACLCsA25u3eGZY833qYgrNdMvt2FcjDz2NtA8yjmLQ3D5t6/d9FmHms8uL138tXqxyMFYQAAwJSLDcMAAAAAICcMAwAAAGAzhGEAAAAAbIYwDAAAAIDNEIYBAAAAsBnCMAAAAAA2QxgGAAAAwGYIwwAAAADYDGEYAAAAAJshDAMAAABgM4RhAAAAAGyGMAwAAACAzRCGAQAAALAZwjAAAAAANkMYBgAAAMBmCMMAAAAA2AxhGAAAAACbIQwDAAAAYDOEYQAAAABshjAMAAAAgM0QhgEAAACwGcIwAAAAADZDGAYAAADAZgjDAAAAANgMYRgAAAAAmyEMAwAAAGAzhGEAAAAAbIYwDAAAAIDNEIYBAAAAsBnCMAAAAAA2QxgGAAAAwGYIw7gVXvzmq9W3f/A71bffeilczlV4qfpq3eZ7r1avfCEqd6zPVq/c16ecz/460Xnjm/4enequXXtffmtX1/ufr14MlhHLz5tRX7/2pfb7sF3zvxNfql4elbmr7s7fqCsb91/4fPXGrl+/+lqw7Co0Y+3cvzXgoL3eXdJ16uZsqy1v6u9Bt9/rvA6TuKAwrP7B1p+w7cA6eqLU/Ti4PT/+Lj9UuM4JmclU7UxjavaH7U2N28Pk7aQ/LGeZJBz+yOWu7o/e5V8v+j4Whp3u1oVhC5Nl1++VSsKH2TDs4C5OjObHy925Vh4/7heOURjGhRGGnc+Vt+U1Xw9u59+Dwzzh6q/DW5gfrHc5YVjzB70/YduJ0jGDqp8YpOvutnejP74N3nMymdppzpcz/AGa/UN2Q+O2rtOuf1+p+/mUfZ8zDLvWNtjC9UIYdrEWfhy7fq/TtNeZrgXCsJtz/LhfOEZhGBdGGHY+wrBLs4VjXO+ywrD9AD8yDOt+FNy+CZbBe04mUzvn+gM0u52bGbf7yV9TtxP+iAvDbjFh2MVauDa5fq9x3muBMOzmHD/uF45RGMaFEYadjzDs0mzhGNe7+2FY94e8ucU/VH4Sl570TbnmZGonZP2+RhOzvG7hCZhuo7b/UbJwbPmPl+Ykn1lerLk4DbeVtck+ZFg4/gJtm89vozmu+sRN6hVdPMdteTjhg2UD+X7zeuV9V16nnaw9J49xUOZsfTd10W/KHf8HKK9vYr/P9qJbH2/SnlGdis6VEm0/t+03/N+pUf8O2mK8bGjtj4LyPzxLY66Xtv2gD1ddL7p6TS7v6tPUYeI878bauH3b8tE4X5Qfw2S7LewjPw/CfkuPqzHaX0mZMzpbvcf9m4+nfLxNteXk+dDvs6nz6X8Pyq4pU9feqJ3yNjj+ejful528TmH75vVaqFM3/tNzamKs53UKx+XC9adoGwfxMR3kfRhde5fE/Rv13fg8OOwvOEcGDm3Ztk/9ORnnWV+Wm6vTTtO/9bFk4yBq94Uxt6j078FEncLzd+V4CTXbKLxeZPsbl5nq53a87MdSsk6r6e817dnUpeR8zc/xnWg/S225b6eZsVLcluM6Dcv0bfFyfw7U9d2Pn+x8z8fVmjZMzNdp8tyMrj/hWA/KzZk4D6Lxk9Znp6R/d0bXw7ky+/oMyu+1/X3Y3rgt830dxvvCWClqy+C8W3ktyP9WJPL2zNtp9Zibuk60Dm0wMeai/Z3lPMj7LervFefB4nhKlw2l42XcXsnyFefK+BgLzt+j2vI0F3Nn2OFE333e/4EYl5sT/aCNDAfkfoA0+xwM5Pzzznj79SBJ69luOz8husE0ebEJlneDK78gLqrXS/bTbXtY7/0Jd6hnXO812pNvdGHe2V8093UI6rTYRgeL/bw7vrQe3YVhsO2yOh3GyrAfXvzmlwbtdL6+G/dBt+39uTD/B6Gk7UaCcX7Q73+47XFblp0rhZptHc6pZjv5cc3WeeDYcyhROC4Lxty4P7vv3srbaWmfU32Qnn/L17mJ/WR9UCyoQ/1d3P7tMUTXi6Jr2GIb1UrKnNHZ6r32/Jluy/E1ZXrsDMud9PcgGWNjZdfe4JgWtjslOpa8faP2btcbngcFdQqvOeP1xttOx0W7fPc5FLVB2bga77cXrH/k9XPfv4P9tN/lx5vWI+qnWtQ3B1296/3t6x6M8SIFderapN5fek1N2yk6lvnjmLPQt6vqlPfBEe3UbTs5vuDcbPeX12H422ncT3m7zbVZs2xN3YM6RmO8pJ+K2nLfToNzP99f0Jbx2Mnq3a3Xb6dv62b/zT5erd5oxnJ27Qna4NhxuVSn4nNztF7UvgUG50He3vk1O/kc1SkYFyNLZeaWN8v69ptuk2E993083Gben0VteeR5PyWvQ2Y8nvtxsbJ/O/Pjdc2YS+t87HmwN9kOhXUqGXONpf6rl6dtO+qDbl/jsZTvv6tn0i677666LY9wWWFY38BN464/UUo7YHxy7iQDsR1s6QWzLxMN9oFwQC8M3onjbY5ncsCXG10Mo5O2+ESc0p40ozbbifplVKeZ9XPHnGj5OkV16tpktk5n67uJ45/ql6gPjzG7nXjcpm13wrkSyNttPE7i70Inj+la1wa77aSW95+PsbbeJW0yf72YOv6i/WVtMi6zcK2a1P3RLF6v/HyvjY+5ZP11+7gKx9V7bR9MbzMfE+F35/57sHBtiuqUt1PzOSszea2ZFbdNXoez1Slst7wO7ef4mp6f16VjoazceDx2wn137bLyWtCsk2+rZDxNlIn65iA+7vl1VsjrtKJ/l8ZcuYW+PfuYWxCe3/F5kLdBIqp39l1yzjXL+v1m+ysR1XtUh5LzqLAtm895uaxfiuoUSbfTntfddrr122XDchNtlrTrKbJjm2jL9DyIy0xep+Ykx334vuS8G5UJx3hmsUw6Tpp99Mc5GCtTx5rXKenjvlwyVkrbMu+nE822w8S+isZ4bL4/y8fc2c+DyXYoqdNOyZhrxNublbd32P7jvmrqOHseXlFbHuFiwrCm0bvObU7eycE+bf4kOVi+0LaDYjwBbiUDqBnAC2UWBm9bn/E2Gse2w2hbg+ONTroTLk6t6Qts1C9RHyTtMHOiL/dz1979tnqDdYrqVHBxOlvfTV48Ji42xRfOBbPbicdt2nYrzpVFwRiauWi3+5hpg5PHdG3+3D04bszF5vfZbCda1vTlYfxG59hY1ubH/hFb3dbT14tac4x9G+6tv16UXlPO5Vz1bvuyK7M4Zqbbst3XsD+DstE14JRzZ+HaFJ0H+ViN27Gzph8nxnNeh7PVKWy36BwLttHI67ry+rNQLj+m9PthPQaKrlkHUVtOj7tsXzv5mIu314uPe36dGUt1Ku7f5TFXbqFvzz7mFkyc383x9XVcuAa02joOj2s0PpvttJ/7MdoeU9sm+ViZFdUparvhGIj6q7QtS9qgtE4T++z7N2m3ZP3hOOjae8Kqtqwt1Kns3GzrlO976jo1K2q3nfG2unoN6txI+jotE7fNUpl2edr2XT3qfu/2l5w3Q83YONR7uU3K27L9rqv71HWl1Nw4b/okWjZsm3zZvPnraNcnBWNuf/yZuK8LTLZDSZ0G5RbrEW8v0dTlsK3RNsNzpW2XpfM3dUVteYQ7H4Y1AyJoxN6ak6X0Alp6UVncdzfgknLhIJsfVKX1LtG2Z3pCjrYfnbQTf0jKTbdZdPGaPebhiRxc9KLtHfQXlHTb+TpFdZq8uB2cre/W/tEoqFuR2e3E4zZtu8JzpcSw33PhudP3dWs0dk8e07X5c7d1/JiLze+z2U60rGm/Qx1Kx+awXs06s8c6YXVbL1wvsjF5yvWiuMyJrqTeXbu25ab6cuYcjM6pvH+bMtk14JRzJ9reQHQe5O0UlTnKxHU13/7Z6hS2W9Y/q9q25PpTKys3NR5nx+lKcTu1bbA/5m5cJmN2ol3m2z0+7qK+ypXUqbh/l8dcuYW+La7TuG2PEp7fWR0XrgGtbp1dvQ6ydQZt2TyW99ruc9OG2XgqEdVprl26ZW29BudGaVuWtEFJnfp6JP2f9m9y/ibrD8tlY+IUBXUqOzfjfjzqejTRL8229vvrx1y67blzs1lWH2tybGVlmu/r46/rtvtv/bmu37BO+zLdOnvN2DjUc7lNjmjLZh9d3SeOf9HcOG/6JFrW9sMxY7Fpr8m6lo+5s5wHQ5PtUFKnVLOs65dxPePt7XV9mqyXnxvhuVJ2/qauqC2PcCF3hrWN3nfM5MVhSdfBSx2zfFEpGQQT2wkHWcngXfijWSTez6ie0f7Ceq8xfVJEJ/1yH+xMtMvcRWSqHvk6RXUqaZOz9d1E+03V4Vz7nd1OPJ7Stis7V0pM9evR5+vJY7pWcnxlY65ozDfm9zm1naP317RTPQbq/R47ptb+UZwqHx970bGUnBNnO19zV1zv2bE835aLfRLt/5RzZ+F4Sq69xWN3SXgcXV8N6nC2OoX7y/tnzbkSj6uxsnKTx3DG8yK8ju+vMe3nsB4TYy7c3l583PPrxIrqVNK/YZnxmCu30LcldVo15haEY6WkDTLNdhbOp2a79b52/23arm6L3ec6FFs7Xo+9zo3KFLZlyTlVUqeC9k7GbrL+sFzZNaJIQZ3Kzs24LZsyi2MjM9GXzbb2dZjZ38K5eUyZpl92+67/29Srbrfd52GdwuvOTrit2TY5oS1LxuqU2XXjOhWddxPm+6FkzJ3xPBiabIeSOsXiMvP1D8dJ3t5h+4/7armOV9SWR7iQMKzthLZj2sYdnTyFms6LOnnQocsXlZ1mYC/UIx/83QAb77+v19Q+uwG1VKcC+eBtjzXbdnTSnnBxak1c9HaiE6qkD6bKtN9PXXzHJ2c/JoZ1KK1Tu266r/AF+ufqu2Rf3bazejZm/wCt0PV7PM7HbVkbtV3JubKo3Ve4jW7702Nzauy13592oY7bIDUuE425fX2S73brjl6g368/Mab668ywTkEblZxjra7+o7qt0+4v66ddveJ+K79e9NtdOpaS450u0/XNCefUVdZ7/nyfasuSsbsTbfuUvwez15Tg+rEzboPoXDlG1wb77cRjPd9/3Hcldcr7oh9XaXv0219u38I+LCw3Pdb6dlkYhwXG/du1weh6NRhz/TUtaJO2zlNjPz7uaIwtKqlTeF7kfd7VaWHMrdEcz1TfFNVpzZhbEFwvovq136Xlkt9Os9e0Xtt2b9x/dX8szXHUn9eO1bydZsZcIqhnUVuWHF9UZqKeh32NrynJeZ2Uz8ZBs790XByloE6l52Y+dtrP6XdFRnXq22XYvuM67fc3e27Gx5IKytTtnYzVup3qf9xg0E5dvUfrhccy3ybHtmXJtid19Z8aU20dgj448lo47tOhsjF3tvNgKDqXG4V1Gpkec3k/J/J69ONrOJ6CcyX6mxGOzbpcMFbP2pZHuKAwrO+8dgCc1LBd5xykg6b4xB9tZycbvIeLTa0+hnZApYOs1g3sfdm8zHj5uEyJdv/7bdT1bY5jcLz5yVILT45l6fEPHfYXnfSjPhicsNE2cvl+wxO4tztxm/0N6lBUp+T7w/bGY/NcfTfeV3QhbER9eKx8nO/bJb4YR21Xcq7Mmh1/3Zju6hGNucnrxWhcTY+pWNwGIwVjrpWPlak+HI+ptG2y8zzYztR4DnX9d8yYTeTjIBo7w+V7w3oWXMNKrhclZfYG7b3U15POVO9R39bG/VvUluH+sjJNHc/z92AvHweD86D82lvWDsvS7dTXivG5mZ1v9RjI+y7YViurU3Ls9bJ22/k1anStr43GXleviTEZbqMxqNPkGMjrNL7m1NaOgdLrc1qurm/bttH+8m0ethe3TzTGSizWKTwv2jLpMabjpC4/HnNrjPtmfZ1Kx9yCaDxNHFe+v7w+0VjJy7VlgvF8RFum9anP7XzMpf3WGux7cludYVtG19Vc4bU339dXX0uvKe3y7lqVrB+Mg/zaXDu5Lcd1Kj8307HdrB9eexdE4zLaRl5uV7/mWAZ1WuzbwjL7fQ2+78d8dL4etjUeN0kfTypoy9J2WiMfU9l4GrVV3k4r5deN9WNu5yznQXS96OzrUFanovG0l/ZzbTie0vapx1J2nUuuEb3gWjH4/rC9YKyc6Zpyiot5gT4AN+SYH5+XpvuDPv4xcFct/Lg58QfpXRb+OOYstC0lpib37fcLIRLkwgk+sAXCMACO50fkTv//tF1QINj16ygMm/p+QwQ2V0fbUqK9e2F8vZ36Hmb5HQObJQwDYLXhbdlb/gG5b4dLnMBHt6/vbH3CILC5OtqWMuNHfRrGDscQhsFmCcMAAAAA2AxhGAAAAACbIQwDAAAAYDOEYQAAAABshjAMAAAAgM0QhgEAAACwGcIwAAAAADZDGAYAAADAZgjD4Bze+FT1q4+frT58I1hW7O3qW09+XT14evCd+1E5Tvevq//8v//36n/s/cfq34TllpxrOxT7Rz+q/mHY5v/zj6p7Ubkl59pOifu/TM7rB48/iMvBbXPvZ9V7RX+LXqg+/Pkz1dN3o2UAALePMCzw+uPdZOXJz6qXg2U35xvVF//rj6t/vvPF70bLP1195gc/apbv/dU3Dsu/++fpstyw7KJDXVI/qj73u9Nlp+r96U9/pfrc36bb2pddVe98O3l9onoPy3TL//a71Wf26/T6bf959eJo2fPV04+fqX71/gvZ9+vcznF3u5yvjdoQ6z//42hZ78vVO3/3/6n+0z/0/o/qfwnLdf7xfxSGTeqC3nOEQE2I9d+q//CPgmVD7/wfbb/93R9W/zRaPnDvn/63qw3D9s7YDtxJt+86vzAmi8OwnXefq6rd30KBGABwFwjDArcylKhDob/9bvW5v/pxGFy9WH+fBzW7db7yg68k5Vpt6DMdTi1p14+3nVmo96d/97vVV+oAKlv24l9NB2txvcd1asPBcdg1XL9tt0GZLnwbHVv3/Xjf7f8bXv3k+ez7tT6ovlM64diw6wvDuiDsr+/tv/tf/nohEBOGzbjOMOxe9X/VIdhf/2Hbh8IwbpGLDsN23nn/2ar6+LnqUbAMAOA2EYYFbmMY1oQ2dWDUhDL53UkrwqnGXKhUonx/8/Xu7rYK78SKTNe72U+wnfT7YP0ujDt8F90B1n0XhHln++G/csKxVdcVhv3TBz8Mgq82ZHn44MuD7waEYTOuKwxrQ8z/653D/xaGcZtcehh2vv+DCADgal1OGJa/k+XpL6vXR+Xau2+ScvsfgMGygfcevj3YznUbhjhRINR+F955FZoOlcq06y+HYQv1HgVRS6bqPVOfJIQrrEP33X57zTaiO9XaH/3zj0d2E41sPI0mFtcahs2dBwfNpG1QJq5bfnzZedecl/V3WbnR/vLtfFJ9616/bN25+fLDT7Iyw2315sOw5i6wwV1hjaXH7q4lDLu+vmvasZm0p/scXQu7sbvfznCiny/LpPUKzpUoNCh9TPJOhmF5/0Zjd+p8SMvmY6CX9N9c3zXafdX9lJ5X0d/X80nrnrVBc03JvhtdP9t2bo41+W2QrneWMV7bX+emtjPVZ63R/mYdjm2xT+Z+F5Wem025ut3S83O2zs3jkqe+QxMA4GpdRhhW/1hLJhfdj7bkB+vSJOTg1v0/t9ldVfu7rQZlDu8Li0Kb3FSoVGomfBpaqvdkyDRlot5zoVqyj3z96feANXVtvp++K6x9af7c+1G6CdBwzCWTtnRyMXIlY7DkPAjKJPXudceX1HP33XC9wWRsP3kabavdTjK5iia8O4vn5sR6Y3NhWBuiDO8Aa+4U+7s/rP6X8I6xzpWHYdfbd8OJ9n7dvH2D9o77aLnuxdfdSw3Dun4angd9H+TnynD9tkzQB0HwsXSOjfug219t/33JODxWt+0k2Nl993hQp+gcH43xfjvptvLjO9sYb8rU2zmUi/olXHe1wbHlfTLcbt0mSR8FZYbfT/Vn17bjNhq2d659j6Z3hwEAt9nFPibZ/hAd/qAOJtwTTv+x+vXqL/7+F9UvfhH7mz+L1pmWh0ht8DUOcPpQqH85/HRYdZ4wrN/PXvaY4mK9ryMMa5alYVhS5yjkarRlv/K3E21da/7f7+lHJMdjcGc0aVv4/uwKzoNmopPVe6c5LwYTpuZzUC4RTprSOjTtNDFBy+u5dG6GbR6aC8PSxyGHd4nFj092rjwMu96+CyfzyTiN+6gtk4cACxPuxeUDFxqGxWM7Kx9dJ0bfRfvIv2s/L/ddF4Zl9V06D48VjrlcM8bnxmWtO96sjvn14WxjvKhOrdPbLj62sA6Z+PqYj41MeBxL1yKPSgIAt9/FhGHt5C6X/uhrfwh2y6Z++O1c1Q/943ShzDDYmgt/Ou2dTVNhz0SoVCyo00hBvW/4zrC2jab3399tN3WcS+8La8ZRPs4mJkiT31+BpfMgWZ7bnxcLE6hewQQtPnc72faXz81u8t6Y22/JnWH3Ju8Qu6nHJK+z79ptzQVmw7YeS8dywT6bsdKtP9fHFxmGtd9H4ULTD/v2GIdTUT+159Tgu9H1pbTvlkKP8yr627smDLuuMX4TYVh+bMH+4mtrfrwLbRUex9K4EIYBALffRYRh7Q++9Ifo7I/chUnX6T9Wz6gJc7pgKzd5V1Nr/K8p9q4hDCupd0Gol5qq93R90rvR8vXbz5PtmNxVFli4M6wZRwUTltnvr9LEebA8QayVTTbDSWJmzflWXrarX3d843YteGfYP/QvYs++v8EwbO8a+q40KCgLSgrHS607F9rjC/a/6TAsHdet8fnV9l1aLt12ad8Jw4qOv6hOrdN/X0wcW7O/Qx2a/WR1io93oa3C4ygLw+bfpwkAcLMuIAyLf8gt/8jdmZion/5j9XyPSTZ3LwX/SuLko5IDNxmGldX7qv81yfx9X+P1p9toZykMW3hnWDiOuhBjFM5MTJyuRX4eTJwXuaMnrpmic7Wz/tycmujNh2F35l+TvMK+W+6XssChtaZsZ+qc2PJjkk3/Lp0rbVAxfy0p7Y/rDcOO/rs9Gitlx3e2MV5Up9b6a1huok7J2IjLxMe7cIxHhWHeGQYA3H6Xc2fY4Mdl+4Nv993Cj+qpH8Lt98sTyqvXhjlh6NTdedUEO3VoM7q7ae6up6sOwwrrPfic1/PFv1oZ4nV3mQ33OQ4Mg/W79cJ2WgrDlh4FaSYng0lE9/mUMOztRx9VH330UfXTH34tXH6M8XnQTY4Wzp++zukkajdJGn6OJokj7cSqZIK4/tycmrTNh2F98DX8FyXbu8Um3hdWWwjD7lrfTV0fE92YLglLmuv00vaGpsbOtYdhb1ePdv320Uc/rX74tWj5GjPBQ9CWo/G+4nxa7JOivivcVuMc7RRdC3ZtNnyBfn6t7Mfy8Lu5dh442xiP+mXimr7+GpYLjq3b17COa34XzZ6b4XEsjAv/miQAcAdcyDvDuh/QvfoHYPPjdPDjbvCD+WD6R3D74/CgbDJwZl1QE4dWWdgVPJY4HVZdcRi2pt7D7wbm1p2sdx9s7eV3zsXrt+8OC+6yWwzD+veGTf/oP0xA+vHWjtVR6DUxccp97Yc/bQKVjz56VL0dLF9UfB70oUpqXL/s3Mu3VTR5r+XbqcXrzZ2b+bJ8+cFSGFbrArHeUqiyEIbdtb4rCgpqXViQCIPNcb0OdSrv/6UwrL2rb9BvA/ljr735MOxr1Q9/2gaZHz067u9Aeh2YOcZRH4/bPxrjtWScR31Sy/tlse/afin7+3d6O7XycTIeB8vX1SAwCpxtjEfXuZlr+mm/L448v6PfRXsz52Z4HHPjwvvCAIC74WJeoA83Y+UP/5kJUpnu7ouf/rD6WricMiVh2EqLj0nqu7MovjOs3OJjkm8/akKec97Vd4yp8Kb9vgtjpq4x3ffrgpeVbkk7XbayoO+mLP3DMgAAt4UwDE7VvTusKBA7MQzr7y569Ha8nFLXH4bpuzO59jCsv+PpyDv6zqi9o2jqbrHu++4uptE1Zur7s7k97XTZbnEY1jwe6V1hAMDdIAxjr31ccEH4DjLaQKzgHSnHhmFf+2H10/quorO8t4g+DPsfe8e++L5gO/ruvJowbNDmx774vmA7+0dbb83dfPEjcvnjj/FjmROPnZ7B7WunO6j72zDut6G6D29rGNbeJS0IAwDuCmEYAAAAAJshDAMAAABgM4RhAAAAAGyGMAwAAACAzRCGAQAAALAZwjAAAAAANkMYBgAAAMBmCMMAAAAA2AxhGAAAAACbIQwDAAAAYDOEYQAAAABshjAMAAAAgM0QhgEAAACwGcIwAAAAADZDGAYAAADAZgjDAAAAANgMYRgAAAAAmyEMAwAAAGAzhGEAAAAAbIYwDAAAAIDNEIYBAAAAsBnCMAAAAAA2QxgGAAAAwGYIwwAAAADYDGEYAAAAAJshDAMAAABgM4RhAAAAAGyGMAwAAACAzRCGAQAAALAZwjAAAAAANuOywrD/6S+q//Lu/1P9lz/6d9W/jJbv/VH1H+pye/+p+vefi8pxG7z++NfVgyc/q14Olt24+9+vnj79oHr65K3qXrT8Jr3xqepXHz9bffhGsKzY29W3nuza/+nBd+73y16oPvz5M9XTd4flAQAA4HbbYBj2L6p//0e7Mv/rHwXLbsLXqy+899+rf/Gdfx0s24j7v6wePP2k+ta9YNnOFsKw+4/PHag9Xz39+JnqV++/ECwrt9j27z5XVbv9CMQAAAC4K7b3mOTn/l31f9+qO8GEYXc6DDuT84Zh7R1b1U+eD5at8UH1neROsNg77z9bVR8/Vz0KlgEAAMBts70wrLl7TBh2qwjDzhqGnS2cuvez6r2CMOx84RsAAABcvcsIw/rHI3tzj0CeHIa14dWr3/p69dlv/bfqXzz4753/WL2Ul339Pw6W77z3o+qz/bKXf1S9OlyW+dLrg+0U+swPflT98//644O/+sa43Hf/PC2z88XvZmWWNCFJHV5l75N6/MGo7MsPPzksrw1CrSbkGi4bysvV225Cs77ML6vXu+VrNcFT/Whj5/Ew7Jl47LFfZ1+2L9d7/OZhG4k3q8fDcknZYNnAk4dfHmzn09W9hw+yMg+qh6MAsQ2m5h+PHL8HrDYKvYrDsJ3mccmZ95O9/aj66KOPqo8evR0vBwAAgGtyYXeGTb0PLH9hfmbV+8O6O7nq0Gp/N9e/rr6UfP50F5T9t+oLL+fr5aHZee4Me/Gv6mDrz6sX9999o/piHXb97Xerz/Tf/e53q68cE37lupCkDlDee9iFG913+8+1+79MP3eP3Y1Cs5I7w+r19gFZF+asvlvsy9XDJx+kwdW9t6onT+NAbB9GdZ+TMnvBNouWpRbvDGvqEIVfmeal+XPv8Ar6IAm94qBsb7LN23eUTe5XGAYAAMAtsZEwbOBMd4bl4dVL39l9t7/zqw3H6rvHhmX6u8HSu77OEIZNhVzNXWA/qj73uxOfjxUFXzsljzOGZY54TLK942zl3WFNoPT96n72fRNEZYFVexdWHT61d2/ld2kdzAVeS+seLIVhbX3GdR9p7tCafkQybLepO8Cmvg95VBIAAIC7QRi2WkEY1oRew7vCeu26aUh2hjCsCbmGd4X12rvDDiHZV6rP/e0Jj0f2JkKScdAycZfRDYVh48cMB4Igav845ey7vObv/kr2OXOH2OKdYckjldN3iC29L6xpy+FdYTVhGAAAABsiDFvtLodhB+1jla2v/OAro+Wz5sKwfWjVB2FpYHWTd4YV313V6EKuJnyaW6fwUcjhO8amgrfZMKw3rFfw6ObCnWFXHYbNv6sMAAAAbp4wbLWCMOy2PiYZaEKx4XvFSkyEJGnQ0r6bquhRymt9TLLgvVs77V1hdQi2FHYVhmG9iTqUh2G9if0uvDNsuv1PDcMW3hkGAAAAt4QwbLWSMKz7HL1Af1AmWTf61yiL9Y8/Bi/Qj/5Fyb1uvajM135Y/bR+4flHP61++LVsWRCStOHUMNDq7gwb3IXUBDG79UZhTLe9PDjrrQrD5uq9v6tq4e6w7i6u/V1X3Uv243d/rQvDpu5Oa78vC+paU+8jW3hcMQ++us8nh2H+NUkAAADuiIsIw/7l7/2nKvxXIqPQ65rCsFr7L0rWQVdn8u6vbpuDsundY2WGjz5Gjz9+5gc/SpY3psKyPryYCcP6EKUVBFN5uccfZI9SDgxCmcagzKowbK7ejT4QS/XB1/4dX1m41X/fh0/7ciODQKsL0dLl00Hc/h1lnWHQlS/Llw+17w2bDqbatuvbum7D9i6+48OwgveFCcMAAAC4JS7szjCuxZo7hrgBK19mf2J/Lr20HwAAAG4TYRjrCcNuv+7dYUWB2Cn92Twe6V1hAAAA3B3CMNYTht0NTSA28x6v3tH92d6BJggDAADgLhGGAQAAALAZwjAAAAAANkMYBgAAAMBmCMMAAAAA2Iw7H4YJ6AAAAAAoJQwDAAAAYDOEYQAAAABshjAMAAAAgM0Qht0ZX64ePvmgevr0g+rx/Wj5FXnjU9WvPn62+vCN9Pt3/uAPq3/4t39Y/fWru8+v/l7zv//hD76YlLkE/+ob326PrZcfY3/s3/tn1b8aft/4YvXXw3X/7e9V74zKbEjfVr2wzW5GM55vUX1uk/05cIHnN61bc537/D+r/m6/n5eqB9+rt/ft6sHn03KPfvJM9av3X0i+AwCANYRhd8aZwrD7399t40H18F6wbOT56unH8aSjnTx1k5R+AhNMlvvQrNeEZ1mZW6uZAI4nYonZSeJB2153Kww7a0DUjZHb2v9bDMNKj1kYduFu1XWuC9a6sdb+/Qjq1vyfNAIxAACOJwzbmuIw7IXqw58/U1U/eT5YFodhf/eNlwZluv9Xfzh56iZUabnbq5mInSkA2HoY1hz/LQ6bhGFs1e26zkVh2MT23n2uqoK7lgEAoIQwbGsKw7B33n92N9F4rnoULKslYVg3gRmGXFOTotnJza3ShXnCsLOEJbc9eLnt9bsKWzxmcrftOpeGYUvbqx+XrH7+qTt1XQUA4HYQhl2R+48/qJ4+frMLn9rHG8ch1JvV4+6xx3sPHwzKfb+6vy9zeDwy3sbOvbeqJ833Wdl6/12Zpj77bWSevFXdG26vuyvs+EdQZiZYySM5cblwkt4/itnLl0eP+kw8mtdsf7Ct+NG9hUli/9hQb2EyuTSpK6vTvGYbdT2SugWPGI3e8TMsky9LHXtX33LwMlennZL+bT7XZbq+67c1OQ4HZWpXGQzl4zerUzM+mv2n7TBq76XzoDHuw8N4Ku/fdszGy3rFYy6v996a4KTt17oead2Cbcy1036cDMrvte2z+vybHU+uc72yOq3QPS759N1gGQAAzBCGXZFD+HQIttrvhkFXG4algVQXaA2CrL2pu7qaMKzdzv59Yl0IN3q/WMmdYSdPMLoJdzRxSiZuhZPEYAJYUmY8SQz2l5XJA4BUNIFemEx2pieJy3UqtZ9o5pPwYTt1245Cj3x/ozZeKwoIBvb7K6lTSf92n8frpcfWbnthPJ1TV4ckTNp9N65TVPdBPYM2GNe77vN0nEXHWys/5vZ8ngzD6nrvt1M25tr11gRhtW7b9f7250twrVlqp3zcDDXLxm01Z3k8Bef4qMxOSf8GZcbHE+wvKzMcb2PR8cfHkGu3e7XXudSp/8cNAABbJQy7IuPga6cLrQ4BVReGZcFXs+7obq2dhTAsDb7abT95+OXBdzslYVjzLpbpRySXTU+e0wlQySSxLTPaVj5pLZkkNmXGE7Vmf6NJXtnk7+RJ4qo6zRtNnHfy/UZlyvrhNHPbKqpTSf+Gk+t8LMZj85zHmgrCmkAUqETnyuJ5EAnbZc0xT5/P0TZGYz3qu+i7RSXjtKSd2uPp26NZPxlnwXk6qWQ8naveOyXnwcQxJMe5F9dtrKzcdVznch6VBADgGMKwKxIHWnlANRFYTbmmMGzpfWHLZgKAZOJWMknstjUhnQDOTxLbiVq8nXxCf12TxHV1mpe2Wyvdb1vXKNRoymXrRts71vS2CutUEgLknxtZWNGUybazc85jTYR1GpsaHweF50GtaauFMjvlxxwHPrXlMbfTtcFw/ePa+1zXi+GY68t39a3bbk29isbTueq94zo3IgwDAOAYwrArMheG5XeG3bYw7PQ7w2YmTslkrnySGE3EE8WTxLnAYeg6J4mldZoXBQzp9tu6Rm3ZlMvWjbZ3rOltFdapoH9HnxvZ+CkKL84orNPY8jhYcx5k5SbqUH7M0/teHnO1KOg5Zsyf73rRrFNvp26b3X/rz3X7ROfBrKLxdL56u86NNWHYxL96DAAAU4RhVyQMw5rQahhE3dIw7AwvJZ6a/KyfJBZO1krCkqjMpOuZJK6r07y03Vr5fqMyZf1wmrltFdWppH/zz40sZAjLdPs607GmykKO5bDghHEWHvOa/p0+hmgbeR2az2dp25JxuqKddmXq/zbtUo+v3edmWwvrJorG0/nq7TqX884wAACOIwy7IuMwrA2n0veD3UAY1pWd32c7wTjt/21vJ9DJJLiZEKUTx3wy3XyeWG82UMgnhN3ndH/dhG42dOhd0yRxVZ3m5W1ZG+03aMu2zHiiOvX9MaK67ZXUqaR/8zKNPMjp2ntfl7794/q19dgtWxwH0/ptJPXaHfPwc1tmYQyUnAdNmXG7jfa/U96/ZwjDzjC+p861UR1K2+l73961TV+v+hh3n3fbn11vpGw85XVsPmdliupdch7s61DS5nGbjpWVm+7rNXVawb8mCQDAkYRhV6QJw+rwa2AcQJWEYV2IFumDtTVhWK0J1QbbCV7W37437NnqwzfS79fpArG9aOKdlqkngs2EajhJrHUTxURWpp2I9cvrSVe77TQEGExWB/KgYGnyl+5rKA4icumEt7RO80qCicaoXtMT1P2kvbMuKDiI6pYoqNNi/+ZBQaMtk9Y7HXN1+XDM1fbjriQ0mpGP32xchf0UKTgP0j6r6x2dB1HZtJ3yZQeHekb9Oj6WeHzX1o3x+JwMx9ZSO/XjbbCt/njX1amWjqf4GlZSZsd1bhXvCwMA4FjCsCsSvzPsLjnH3WGtcNIHd0I/gS8IqgiFYVX//YW269Qxc0bNuy1P/T9sAADYKmHYFbn7YdhO9wjKyYFYfsdO/XniTgS4Vbo7ddI7XCjXhYmjYGjq+8sgDLti3d8m7woDAOBYwrArchFhWK2ZdJzh/31PHv858ZEzuHKHx9pOeYyLWvqI4N4FB+LCsKtVPx4pCAMA4BTCMM7uj//4j6sf/ehH1UsvtXfT/OZv/mb1/vvvN9/3ZX77t3+7evjwYfPf/jsAAACAqyYM4+z+8i//svrxj39cvfbaa83n3/qt32o+P3r0qPrMZz7TfPenf/qnzXff/e53k3UBAAAArpIwjLP7/d///epP/uRPqt/4jd9oPtf/rT+/+Wb3r1/uvPLKK9X3vve95r/9dwAAAABXTRgGAAAAwGYIwwAAAADYDGEYAAAAAJshDAMAAABgM4RhAAAAAGyGMOyq3P9l9eDprw8efxCXu3hfrh4++aB6+vSD6vH9aPlK97/fbGvvyVvVvahcoUc/eaaqfvJ8+v3n/1n1d//2D6t/+N4/q/7Vp1+qHnxv97//7berB58flLkIX6z+uj7OvfwY+2P/w+qvXx1+3/pX3/j2YN0/rP7uGy+NymzHUlveoG48R31I32+XeH7Tuj3XuXf+YLCfV3+v3eYffDEt98anql99/Fz1aPgdAABnJwy7cm9X33oiDDtLGHbvrerJuUK1nXfef7aqwklHN3nqJintBCaYLPehWa8Jz7Iyt1Y3AcwnYon5SeJB2153KgxrJqLnCkBK2vIGbTEMKz5mYdhlu13XuTZY68Za//cjqFvzf9IIxAAArpQw7MptPQw7n3sPH5x8J9jeu8/tJhvPVh++ESwLw7Dfq94Zlun+X/3D5KmfUGXlbqtmInauAGDjYdhZ2/IKCMPYqlt2nYvCsHh7L1Qf/jy4axkAgLMRhl05Ydi53N+14XnCsOerpx8/U/3q/ReCZbU0DGsnMMOQa2JSNDu5uWXOemfUxsOws7blFRCGsVW37DqXhGFL22sel3ymevpusAwAgJMJw67cUhj2QfWd4bvFnn5SfeveUpmobEmZnaV3mTXLf1m93td7qtyiw+ORrQfVw9FxtWWePPxye9fXvuz3q/tJudZyGPZm9Xi/jVq0z53mrrATHkGZnGBlj+RE5SYm6f27ZHrp8vhRn2ad/NHMbvv7bU09ujk7STw8NtRamkwuTOpK6zSn2UZdj6xuo0eM8rqnbZm3c+LYx1wXJ9zzdSrt3+ZzXabZX7+taL/j/dWuMhhK2zWvUzs+6v2n718a30WZ909U53QbO4M2Gi1LjAPteFmneMxNj6s1wcnx/Tssc2jrdJ1au97qMCc/fxuD9nKda5XWaYXmccmff2o8NgEAOJkw7MrNhGH3fla99/TX1XsP395/9/LDT5rw6Tv792J1Iddg/bZMEITNlum/q4Ou/rugboOwbF+vrp6HOq3UvPR+OgxrgqvHb3bfdYFW/zl/YX5m//6w7n1idbDWb78P2PJ3jJ06wUj/3/1UMnErmiQGE8CSMjujSWKwv7RMHgBkgkn+/GSyNzNJXKxTocFEc98uzbaH7dQd3/A4ujKjuhUd15zStiypU1n/Np/rbe2/69ZL2jLY32g8nVMfKAzDpN13fxDUKar7vp5BG0T13rVd2pfB8dZWHHN7Pk+FYW29p8dc3y+D9bv1JkOTCWv6N9l2MpaD5XvtslXjIDjeUXsl+++M2r+kf4MyO6PrRbC/tMxgvEXysVKLjmFkpm0X63SkU/+PGwAAJgnDrtx0GPb64933T35WvZx8n5WPgqj8u5IyXWA2CrT2d4INP+fl2nWHod0qS2HYPghrTd0BNndnWLws2n77LpbpRySXTU6ed5IJUMkksSkz3laznf2krWSS2JYZTdSa/QWTvKLJ385Jk8SVdZozmjjX0v1O9Us4KS09/hIz2yqrU1kIEB1Hvv1wf2HbnUe7v7LxMXt8RedBLGqXNcc81UclYy7uu7g/lxT3b36syXmWnnNJ+dXnXXwco/aKxn/edkX9G+8vbZf0+Pamjq30PC8qdw3XuZxHJQEAroww7MpNhWHt91HA1NzBtQ/Jpu76Gt7hVVCmC8f6u75SgzvImjAse7TyVFcehh0et0y/j166v/S+sGXtZDCe5CQTt4JJYrut3TqRbAI4P0nsAocJo1DgWiaJK+s0J59cN9L9phPrgeYYsol46fGXmNlWWZ1K+nf8uZYHE+H+wrY7j6hOY1Pj46DsPKh1bTVbZmfFMY/CnV7BmKs1bTBc/8j2Lu7f+ngjXb8fxkDfVt3YbOoVHOek9ljz4xi1VzT+szYo61/XuRFhGADAlRGGXblTw7Bu/anwqrRMdPdY5OLDsNPvDJueOGWTueJJ4tIEtXySOBc4JK5xklhcpzkFwcQhBBiW2WmOIWvj0uMvMbOtsjqV9O/4cy0MS/L9HRnOlIjqNLY8DladB1m5sA4rjnly3wVjrhYFPceM+eL+XWjvZp2mzK6uu/++s/vc1Cc6D2a1x5q34ai9ovHvOnceTRg29a8eAwBwCmHYlZsKwwofk8wfY4yUlCl91PFOhmFTy+Ltn/5S4onJTz55Lpgklk3CSiaJcZlJ1zJJXFmnOQXBxNSEOwwQSo+/xMy2yupU0r/xceTbnz7WcahxDmUhR0FYcMI4C485HC+xyWMoGHP953O0bUn/FrV33Zb1dnb/bepZH8fucx2Kjdpp1kx7D+sQ9Z3r3Hl4ZxgAwJURhl256TCsDZ7SgKp9vHEQRpWEU4UBVrvthbvD1oRhX/th9dOPPqo++uin1Q+/FizvXUMY1u4jeoF+sN9mgnHa/9veTkqHk+BuQjScbOYTwu5zuN7CBDefKLcT0mx/zYRuIXToXcskcWdNneaUBBN9+w4npd3+0/V2urIn16s210aFdSrp37xMbRSO5NvuPodt0LVf0TiY1G0jqdduTAcv0J9v65LzYBw6hOdBo6tXQUBxjjDsHOOoqH/D9s409f529Xff6/u1bbf689rApm3fw/737T2sU95O/Zgffuc6dxT/miQAwNURhl2RPngay4Km0bu8xnd4NXeQJWVawxCtpEwtrNcwqFsThr39qPpoMgzr/lXIyD78OmMYVuv+RcnDvr5f3Y/Kde8Nq37yfLCsXB+I7QUTzbRMPRFsJ1TpBLufKKaiSXi/rJ50NdvOJ8WD8GMvmjjPTv7SfSWiIGIkm/CW1mlOUTBx+O6wr5kJbl6vtXXqzbZlraROy/2bBwW1cViSjbmmfLvttO1qg3G3MiRJ5eM3P76onyIF58EgaGns6h2eB1HZIMA5LDvY17N0zEXju7ZyPJX273g81YZt3i0fbKsfE8t9kMv6pB4nzfHOjLlmWTTmXOdW8b4wAIArJQy75drwahyQDe8gKykz/J6dM9wd1oomfXBHdBP49SEJjTAwO3x/ie0aB3ScV/tuy1P/DxsAAKYJw2659o6vqbvF2u9Lygy/p9U8gnKGQCy/o+OdP5i7Swhui/5OHcHG0bowcRSGTX1/AYRhV6/92+RdYQAAV0kYdutF/1LkTvLi/ZIyRJpJx8n/73vwKFFYDm6H/WNtpzzGRSN9RLB3uYG4MOyKNY9HCsIAAK6aMAxW+uM//uPqRz/6UfXSS+0jUL/5m79Zvf/++833fZnf/u3frh4+fNj8t/8OAAAAuHnCMFjpL//yL6sf//jH1WuvvdZ8/q3f+q3m86NHj6rPfOYzzXd/+qd/2nz33e9+N1kXAAAAuFnCMFjp93//96s/+ZM/qX7jN36j+Vz/t/785puHfxXzlVdeqb73ve81/+2/AwAAAG6eMAwAAACAzRCGAQAAALAZwjAAAAAANkMYBgAAAMBmCMMAAAAA2AxhGHCyew8fVE+ffnDw+PAvazbuf7/9/slb1b3h9403q8fDdZ9+v7o/KnOcRz95pqp+8nz2/QvVhz9/pnr67vA7AAAAtkIYdke8/vjX1YMnP6teDpbdeU1Q8qB6eC9Yxu1X0n+zYdhBG6qdJwx75/1nq+rj56pHwbJPv/vcbplADAAAYIuEYXeEMIzb6v7jD8Z3gh3pbGFYE3Y9W334RrCsMxuWAQAAcLGEYXeEMIzb6cvVwye3LQx7vnr68TPVr95/IVg21D4uOX6MEgAAgEsmDLtK939ZPXj664FfVq+Pyn1QfScps/P4g+llA+89fHuwnXLNnTz79zNlIVQTTNVhRBdy9OVGYUe2PAyz8jIfVE8efnm/PK1HJn+c7t5b1ZO55SWabdT1XDq2nf6xvqBME9hM7X/ffsGyGVFbHNoqDpyadda2UxQ8dus8vj/4bievU768Fddtb6YdI/NhWMmY22nuCiu846vgDjIAAAAuizDsqtz7WfXe4z7Uqr1dfevJr7O7u7rvknKx89wZ1ocJw7Bh993jQWAyCC/2YcwoLGlfeD4MtqKQ5f7jLKzotj0KVaKAZmF5GAQtGQRF+zoEdRoHMmngMxfYzAZloW7byTp5+6b7743aoKSdorYe9W+wv6xM2wa7MqGoL+NjyE23bdmYqzUvzf/5p6p3Bt9Na+8i8+4wAACA7RCGXaOXH35SpXeHtXd+ldzhdY4wrA0aoqBiIAiH8iAiDnzasCMJK0aCQKM2EWq0JrbbhDMLx5IbhT61vE7t57TMTlPHLqQZ/u+sfBM+LQQ+ifDY8zqVhGGF7RTtL2+X5PgO4mMrC7lKy02FYeVjrn30cfkRyZ5HJQEAALZGGHaFmgAre7Qxf1SyDci6ZY+n7xA7Rxg2uksoEoYzqWY7TycMw44uZMnLjAKb2X22wVC+jd4otJpTEoZN1LnV1XEYMDV13y3rjrtum9HxzYhDnmPCsMJ2KgjD2kAq3s5UIHXVYVjxmCt+X1hPGAYAALA1wrAr0gZhn1TfGoQO4zvDBobvFwtCr1sXhi1tpw+VkqAiD3k6BWHYmoBp0oowbD5ka9epy9ThzeP79ec6wInuVJp37jBscd/FYdg4kIpdYxi2NOYax90ZVl4eAACAu04YdiXid4HNhmG9JhRLQ7Ta+R6TXAg5CsKw47czEdjM7rM0bClQEoYVhUptnR7fr//btkMd1rShWL79eWFbdvVcF4YVtlNBGFYyBg5K+6es3NTYKhpzHe8MAwAAYI4w7Irk4dXhccj5MGwqMGu/H4dkubcffVR99NHOo+g9ZG1Yk95h8+XgBfpLQUi0ncwoeOrW2RkFTaPwJ9PUaSmgKlAUhvXBy3yoVQdRT57syvXhTl3H3edj32O233/3OT/e/M6o5nNdbtgHJe2Ut8Fgf4fj7YKrovDpesKwojHXW/MvRPrXJAEAADZHGHZl2pfjJ48+Nnd9DYKu+l+cHJZpTIdl7aOXB+MX73+t+uFP58KwWh909LLwpviuoEO4NbWtPlTqtXdSTYQ1XZCzl4ce+fKozJLCMKyW170xCHLGgVnfHmV3LyWSY6vbMGqntL3rZU0djmin9Njq+rbbTtslHyettMyg3ETIFbZjYzBWBoFcbq4NWtFYbe/2Wn4PmPeFAQAAbJEwDG6dOKBjhYI7vt55/9ldmeeqR8EyAAAALpcwDG4dYdg5NO8OmwrEmrDMu8IAAAC2SBjGnbd/f9acxXdanddpdRKGnUsTiI0eg2wfjxSEAQAAbJMwDAAAAIDNEIYBAAAAsBnCMAAAAAA2486HYQAAAABQShgGAAAAwGYIwwAAAADYDGEYAAAAAJshDAMAAABgM4RhAAAAAGyGMAwAAACAzRCGAQAAALAZwjAAAAAANkMYBgAAAMBmCMMAAAAA2AxhGAAAAACbIQwDAAAAYDOEYQAAAABshjAMAAAAgM0QhgEAAACwGcIwAAAAADZDGAYAAADAZgjDAAAAANgMYRgAAAAAmyEMAwAAAGAzhGEAAAAAbIYwDAAAAIDNEIYBAAAAsBnCMAAAAAA2QxgGAAAAwGYIwwAAAADYDGHYbfOFz1dv/OB3qq++Fiw7yWerV+7/TvXtt14Kll29F7/5avXt3XEds/+X39qtd//z1YvBsrvhpeqr9bH/4NXqlS9Ey2+ZKxuDE177Ujs2ejcwRs8xxppt7Or/xjfXXiNv9ty8ck3/Xt3Yv9Hrw8pz5ZTr4FWZrVPRudlf33pfql4eleGqz4O7YD/WOuuvlStc99+xu+JOtcsd++10Vv2xt9fT/vfFXL/dlt8gSV37vyGX+vsGuPMuKAyr/3D0P8LbC/sxP7SaH2s3Gbyc8ENlflIoDLs5t+0H3cJYuLEfyzc3Rs8xxm7LD9FrtzRe7mQYlgc8ue5vzcpz5c6FYXtlY7Td1kbDsBs+D+6W9vy6vDDsDlzLb+zv+zHu2G+ns+r21f1t66/Tc/12W36DtHXt+qwbb7f6nAA27XLCsOaC2/8Ib/+AHvPHvrmI32TwcsIPlflJ4R34kTbhaia7W7YwFm7sx/LNjdGbHWN399xsLI2XOxmGpZp9RP1zY+fKdSsbo8KwmzsP7hZh2I3ZzDXrKlxn/3b76v62JQHTqOypzntcURh2pec6wAkuKwzbT4iEYePld+BH2gRh2LktjIUb+7F8c2NUGHaCpfEiDLsAZWNUGHZz58HdIgy7MZu5Zl2F6+zfbl/937YrvX6c97jS4O4aznWAE9z9MKz7w94+uhJZ98O8NAxrL/aD/UR/RJo/XoMyYV26P0JJuTU/VNo/NPn6vcMfoHY/9eek7tGx5m161EQzrlf0B3GpLfcT0aQ9ox8FwT5X/3GPfxSEE+5R/+b9ltcn6P+mretjycZBUO+mDsn2WsU/MhbOlX3dJ+oU7idvg9XtPRS3/UHentEYyNpxp6jetbXjfKI9x+fuuE5pmXb56NyMxsvimFvS7+ulfZ2S/eZtP9O/o/M2Mah7s436c9p/69upc46+W2k+DFs+V/K2Csdk7eT+bds4XucwzurPxXVqdMe3cH6324z+zpUbj6voPM+vh1GZ8d+DpF1WXHvnnP88GF/r142BgZnz93D9SvurP57ReMi2FY2X8nq3bTA/5paM+3d8fMvnZmOunXr59X54zcmXZY7pv9G4yq5x+2tSUvfoPMjGd+cq6tTI23JnvK+Fvhstn7qmBNtp9O1wuOaldV95jVrVv+P2Pqati0zUa7y/pTqtaKei/gW4Oy7mzrDmAt7/YW4u1iv/2HWS7Uxof/ANt9/9Qc5/HCV/3Ls/Rsm2u/VGP+CO++PS1Guy7oM/hvv9Bftv2i79QTW/3VLtvvIfoiVt2ZYJvkvq1B1f0ubHiLcz2t/Kfmp/YARjcvBjZr+t7sfGcNujdurWO24ysdBWhXUaH9OpfTCzfnC8/Y+2tJ2yycBkva9gjIdjYuocGx5Ld9xJuaAtwu2vddhXvZ32evdqe63Kzv3i/l2qV3e8420P+6Ckna6w7xY0+8iPu1Z4rhzE18HGWfp3ZvvdsvH259bpzZybA+Mxs1I2BmP9GM7G5lv534O0HqOxs7rvFpzlPAja+chxMe6L6W3vv+s+52Oh3VZahxe/+aUT6l0y5uYE+8v1xzasQ9C/Re0UjMv4ulNQrxK7/aVt07bXcLvtb4JhHbp9J3Uar3fseCqpU9m217XRuH964/1Pnk9JuaDexZbqHmy7G3PHj/UVwvYvqVPUTsGxHjt2AG6xywrD+ot2c6GP/ngua7YzN7Ga+mPQ7DP9sZTL/6iHf+RP+GMzPymM/4in67RlRn+0mzrNH9uy9g9ysu3CtgyPa1SnYPtHKWmnnYL+Hgr7uha2QX4sUZ3iepZZWLeoTu3nuO+OO/fm6hWP7ZI2iOudj5P5c6dQ0G5T/R6dd6PjyNty5ZiLdfvq9t3Wr9tmsv0V/Tt1HveiemfrlLXTFfbdgmYf0TgrOlcKl52xf/vtN+3at01T12j7c/XtlZxrM9e5QiXrJ2M2WD4p76vVfbcg3N5AwXkQnl87k+NvUnsco7pE22++q8tO9HFXx9k2WV3vE9q5UbB+Uf+WtFN6Tu0128/HYdl5coz8Ohdd9/LzJzyflsbpCqM6NO22dG6u6/vJa0J0HKPv4v6I2q7MfP9O1fX4/a0UtElZnSaOKz+vi/oX4G65mDCsubB3F/Lm4n/kH57FdSd+9EU/qpo67b5LHdYd1nnvhB8q839wS34UtMcwrnPrmDodBD+ACtsyPq5xe7d/9Lv6TvxYWVb646kr1+1vqW2mfpDE/T1uq2b/w/VPGCdLP+iK6tSV2bd34tgfS1P1ar+PfjyPzteJeqX1Htdv/twpFLRbs92onZOxP3Hco7quG3OxdF/JuBz+0F3Tv8FxJ6If0Nk6Re00ao/WWfpuwWT9wmMPrnVFy87Rv8O69tsb9mlwDZqtU29ijGYmr3PF2rqE46xT3N/N2Om3dbBv19V9tyDc3kDBeZD8DcutGePddsPtBO162G/Qd1G9M+vrfUI7d5J9HntuFrXTcEyOpdsvO0+WpdeCvUFbRudBfv6F162lcTppuU55mal9LPbdQH5MB12/DNYfl437o/gaMjLfv2F714Z/x65S0LdldZo4rmZ7w3O/rH8B7pI7H4Y1F/ruwhxZ+2Or+WM690dy8o9a+4e5/+PQ1iv9AXm1P1S67U3WveRHwek/UKcF217TlvlxzbVTs93dOrXVP3jW/3hqlnX7m2q7yR904XGM26pd/7CfuX0tm/9BV1SnE8bptKl6td9Hx5ucr12d0vWjeo8ndvPnTqGgTZrtRu1c8kO0KRNPQkvGXCzdVzIuh/tb079LZaPjyNYpaqer7LsFk/ULjz241hUtOzi+f4fnxG5fu/++vPvcbCMZc0MldVq4ZnQmr3Ordfvr2mB0Ti31d3Os2THlfbW67xaE2xsoOA/O1n5LdckcxltwvYnqnVlf7xPaOdf1dWM4Lkr6t6id1tS17DyZ14/9tD3zcR+dB3k/NGXyuqwcG62yOg0dxtRM20313cD02EqvEa18nMb9MVfvefP9G7Z3rTnONefHkYK+LavTxHHNnPtF/QtwB1zInWHthbz/AzB58S/Q/OGd+yM59UMi+aMR/2EJf6jk++p+HKz7odIKt7dX8qNg/g/9aYIflEVtOddO8z/Qi8qMlLRTbK7M5A+6sA3ytmo/HzMmYgv9vKJO5/0RNF2vuG2z8mF/Z/UMj63bzkL/Lgq2PdXvJefd9CTgoGRcptJ9JftI2m9F/06dx72oX7J1itrpKvtuQVOP6HwJ6zTXduvOm/X9u1O3d73O7r/Nfuo67j7XoVi8rZI6xWM0VzJm1xnvt2QfYZm8r1b33YJwewMF50F8DTtG+XG0bdXuMxxvS8dVW13vE9p5Sl6Hov4939hvrSk7Ja5T3jdRX+XjPuzPpp0W+nOkrE6RkjJz42fyfG/WWbrWxP1RVKfQfP9O1fX4/a0UjPmyOsXHNdn2A9d2bABX5ELCsPYPdfsHoL2oH/sjq7n4z17Yuz8ayR+Idv/DPyT5H4j2j0q2Xv6jpPt8bBjW7mPqB2nhj4KuDse237Tox9RxbRmViZT8IY/k+2s+1/srGRcTdZqsy9l+sK/THtNE2xTV6TCmjxmrsZk2DMblaLyP6t2Nk2S9bh/7vuzH4PC7I0Xt1n2XHFN+3kfH3a033+fzYy6WrpOMy6Zeh/Ys79+F8zHbbiNvqzXtVNh3ff1P7ted5nyJji/q89nzdc25fEz/7jR1erV6437f5u126s/xtkrqVFaXZDydRVS3brwl/bqr3/AF+vmY68fXTj7myvtuSVevqTYqOQ/2Y/r0Niw6f7v9H443Pob270Va9/AF+sX1PqWdY6OxV9i/Re3UXYtK6jv7t7XI+FyLfoM032XXtlEb5NfQ7vPi8Y6U1WlsvF5k7roxuSw6n0bi/UdtV2q2f/vrzHB/eR9cpWjMF9UpaKfRtSFS1r8At9kFhWHZD/8jf2T1P4xGoj+mg+Xj/XU/Knv1H97mD1D6RzTZX/PHuV3v2D+c0/Va8aNg8INp78gfDgfTP36X2jLqk9F2+j/4iYkfLIvSvqv31dRh0AbhOMl/EIR1au3rH/14idoq6pPa0f3SjYfBtvZ1KK3TTlE7LAi30Ygnjofl4/7Nt9W/FDqtd9q/9XHm/XuUsN1q6f6iH/D5OVDLt3OOts6vA+02u3Zsxlg+4S3c51zfBNudG2OHbYzbaU3f7dv05GtXt62Z446OYzjmov5tHdrpPP1b69oouF6dpU6NQd+M+v4gv14sieoUbyO/fi2dU/Xytl32fVXYd6uc5TwYX5traZkys2Oq/5uSnx/999nYy7c1bqPlepeMuSLhmMu2saJ/i869vl2GwmvLuB1W911+fLu6NHUc7K9py2z/7XGk7ZAcW1M+Ow9KFdSpqB1X9F1apjXsu6nxdCiT/r1L1gv7rsRS/3bX373o79gVCcd8bblOUVvm2ynqX4A75mJeoM9td+QPMKZ/4HTfHz1x47ya/rjGH74AsEFR8Hf4fqN/h/0GAVhNGMaVqH+QDMObqR8uFOj+H+lRGDb1Pdfi5bfSH52n/b/NAECJ9k6m8W/Kqe8vkd8gAKcThnFF8lvJBWGnCG9P9/8AXoH8cYJYG0BmZf0IBYBrED+Wu62/w36DAJxKGAYAAADAZgjDAAAAANgMYRgAAAAAmyEMAwAAAGAzhGEAAAAAbIYwDAAAAIDNEIYBAAAAsBnCMAAAAAA24wLDsA+q7zz9dfXg6SfVt+5Fy2fc+1n13m7d79wPlrHavYcPqqdPP9h78vDLYbkrc++t6sluv49P6c9uG0+ffr+6Hy2fc//7u/UeVA/XjsMS7z5XVR8/Vz3Kvn/0k2eqX73/QvIdAAAAcCAMGxKGdd6uvvVk14aPPwiWHePN6rEw7Hze+FT1q4+fqZ6+O71MIAYAAAAxj0kOCcM6wrCzuJIw7Pnq6VLY1dw19mz14RvBMgAAANg4YdiQMKwjDDuLKwjD6scgq59/qnonWDZUWg4AAAC25iLCsJcfflI9aB6NHPpl9fqobP8IZS97lLIJw+rvujCoLxeEQuN9HvFY5pmN6vTkZ9XLebn7v0zL7OzDvy4MzJf3jg8J58Ow/N1iTx+/OS7XBEuDMuFji1+uHj4ZlmmtDcPu7/o738bTJ29V9/KyeZ3yMs3yup7t8fflxu0Q1DvaX3dXWPh4ZG7uUUoAAADYsIu8M6wNhbIwrAt63nv4dlYuDoPy75IgqAmUbj78SuzqNDy2ffA3DPKiYwld351hbfA0DLa64GgYBtV3eCUBWRceJYFRt96w3JnuDGvqmIVTbYA3vOurD7QGx7IPywblgrvFou2HVj3++EL14c+9OwwAAABymwnDXn/86+BOqSz0mQiLmnUHwVAYth3h63/x99UvfvGL2N/8WbjOGqNjLg7xrikMmwqrgsAo14ZRh+Ap/9y4sjCs8HjC42hDs8O6XYgW3Q2Xeef9Z1c9+uhRSQAAABjbSBjWhjvpnVODsn1gNBGGJWUaw8ctb8sdYtmjnb2k3mmZ6TvErikM2z9GOPiu0ZYfhljho4uDdZvleaB0VWFYs90orMuCrolQb1TXplx3TDN3iK0Nt4RhAAAAMCYMKwjD4rvKaqXh0lXr61FyN9xgWVfvcbvcrjCsDcLSUCm/E+zuhGEzd4J19c2Dvt5Rd4b95PlwGQAAAGyVxySHoU8YhpUEQ8eFR+d7TLK9Uy0PtebCsF5Ru5ys8LHCXhIixeFRGIbld1V1d1ydPQwrPZ4wDJtYd2iqXbwzDAAAAE62nRfod/+K4jAwassNHnMMwrBRmVAcRl2fcXi1v/NrNgybDr3a9bM2HHm7evTRR9VHO4/ejpb3pgKgLuhK7oJqyw7DrzyMaoOwbL08+Oo+X00Y1n2XBF3dsQzLBWFYu974rq9EGKLV2n9Nsijg8q9JAgAAQGg7YVitC7v6xwPHZYbvApsqMwiaBm4uCOvkx/b4g7YdBmFY2y6DMl250bYaXVA2KDt6DPRrP6x+OhOGtcFPJA2D8nLj0KwLyHp14NQERul2DiFZV6Zb7yrCsFqyv9rEY5pJmdF2smNrREFYq3n08ePnqkfBsiHvCwMAAIDY5YZhC48HQqkmDIve8XUjCu4OW/U4JQAAAGzLBYRhH1TfSYKvm35kkTutvptrGHxNvb/rJjVh10Qg1j0e6V1hAAAAELuMO8O694H1BGHkRo80RrpHGPOytyoI6zWB2PhxyfrxSEEYAAAATLvIxyQBAAAAICIMAwAAAGAzhGEAAAAAbIYwDAAAAIDNEIYBAAAAsBnCMAAAAAA2QxgGAAAAwGYIwwAAAADYDGEYAAAAAJshDAMAAABgM4RhAAAAAGyGMAwAAACAzRCGAQAAALAZwjAAAAAANkMYBgAAAMBmCMMAAAAA2AxhGAAAAACbIQwDAAAAYDOEYQAAAABshjAMAAAAgM0QhgEAAACwGcIwAAAAADZDGAYAAADAZgjDAAAAANgMYRgAAAAAmyEMAwAAAGAzhGEAAAAAbIYwDAAAAIDNEIYBAAAAsBnCMAAAAAA2QxgGAAAAwGYIw67I/ccfVE+fvFXdC5bdjC9XD5/s6vT4zWAZs959rqo+fq56lH3/6CfPVL96/4XkOwAAAOB2E4YFXn/86+rBk59VLwfLSp07DDt9e7c4DLv//erp0wfVw3vBsnO791b15OmuHfa+X92PyvXe+FT1q4+fqZ6+O71MIAYAAAB3hzAsIAy7ZtcWhr1ZPX76QfX4fv+5a5PJdn2+eroUdjV3jT1bffhGsAwAAAC4dYRhAWHYNbvOO8NyM/uuH4Osfv6p6p3s+1xpOQAAAODmXU4Ydv+X1YOnvx74ZfX6qNwH1XeSMjuPP5heNvDew7cH21nWhFd18NSELbv/3YhCl/ZupUOZ4Z1L42VDTx5+ebCdWhd47csMHwFsl9Xr3Hv44FDm6IBtrt69vD47g/01bTRcNrSqXtNBX7uPmUchu/4Z1729Kyx8PDI39yglAAAAcKtcRhh272fVe/tQq/Z29a0nv87u7uq+S8rFznZnWBbqjO/uqkOcNKhpg6pxaDZeN9eFU0mZ3Xf7gGgQTO2/69ZZfbdYWb2X69w5w51hcbu1xzcODQ+m2nvd448vVB/+3LvDAAAA4C642MckX374SZXeHdbe+VVyh9eVPSbZvLx9IfTpXvCe36m0FCw1y2dfBh/fPVUcWC0Z1Xv6bq2RszwmGQRfS9vtX6Yf1PGd959d9eijRyUBAADgbriYMKwJsLJHG/NHJduArFv2ePoOsat7Z1gb2CRBV/IY5cG6MKwkeDpzGFZS72GZuX2cJQwbH0vzebJNurviJgLEteGWMAwAAADuhosIw9og7JPqW4MwZXxn2MDw/WJB6HW1d4YNAqMuLEruZjrqzrBrDsNW1Hu4rA3GgvDpTGFYu59+O0HwuNcHYdP7POrOsJ88Hy4DAAAAbo8LCMPid4HNhmG9JhRLQ7TalYVhWejTvq8qC4eOCsNKQq3zhWFr6p2YKnOuMKw7xiakq7cZHlfXDkv7884wAAAAuEiXc2fYILw6PA45H4ZNBWbt9+OQLPf2o4+qjz7aeTR+D9k4ZOruRhqGUXkINLiDKg+MJl/03uvXTcKu3T73n899Z1hZvRNToVe3/tyL7ks17bQ7noe744q21xzvUhDWaP81yaKAy78mCQAAAHfGhbwzrH05fvLoY3PX1yDoqv/FyWGZxnRY1j56eTB+8f7Xqh/+dDoMa8OrNiDqTYczvTqkmX68Ly0bba9//K83vHvrjGHYznK987r05dLt7DVB2aDsEXVq9fudehxzsI+hYH/No48fP1c9yr7PeV8YAAAA3B0X8wJ9OL+Cu8NWPU4JAAAA3DRhGMxpwq6JQKx7PNK7wgAAAODuEIbRiR5rHJt9J9jZ3ZI6NYHY+HHJ+vFIQRgAAADcLcIwAAAAADZDGAYAAADAZgjDAAAAANgMYRgAAAAAmyEMAwAAAGAzhGEAAAAAbIYwDAAAAIDNEIYBAAAAsBnCMAAAAAA2QxgGAAAAwGYIwwAAAADYDGEYAAAAAJshDAMAAABgM4RhAAAAAGyGMAwAAACAzRCGAQAAALAZwjAAAAAANkMYBgAAAMBmCMMAAAAA2AxhGAAAAACbIQwDAAAAYDOEYQAAAABshjAMAAAAgM0QhgEAAACwGcIwAAAAADZDGAYAAADAZgjDAAAAANgMYRgAAAAAmyEMAwAAAGAzhGEAAAAAbIYwjNRrX6q+/YPfOXjrpbjcFXr5rd1+73++ejFYVual6qvDY/jBq9UrX4jKzXvxm69Ot8GVtlNb/ze+ecq51rfBEcf+hc9Xb+zW/eprwbJTNe32perl7Pu6z087XgAAAChzQWFYPfnvJ9mfrV65fwsm11cZKly5tg3vXhh2vnrPhmF7V9FOFxqGzW23WyYQAwAA4KpdThjWTKb7MKwNAm48hBKGHeWkMKxp8+PuBDvObQ3DTnAl47bgmJq7xq6z7wAAANiiywrD9gGKMOx0dzQMu/ZARRhWorRPT7srEAAAAJbd/TCsm7gn729KjN9PNK8LNwbbiEKJ/SN0e4cAZrxsaG19DsFeut34vUvDfZ0WZiyFPG29DvuLAqiythy9f6t2ZWHYcp3y/psPpZbaKd9fXLe872prw7B43EXjbaHvmnOq/i6re3CMc+fBwYpw+k4HyAAAANwFF3NnWDMp7wOUiZd0l3j5rWwy3wU1yeS89O6js0zsB8HFPiDKA5ggkDl53zMhT7ftYVjThyLD/ZW0ZbteWm793UF5uJMZHENR/+612z0+DAvWH42dbv3keEv2u6xt2+w8KOm7rkz0XdJOpedBablG2x6nHjsAAABMuawwrA8kmsn3cWHY2DiYCEOGyMmBVK0LerKwJQmMJo63KROGNCWmQ544rJoLhXp5W8ahz/owbGBV8FKbC57mlvWmj7sZJxPttN9mWN+S/S6LxmlR302M23w8lZ4HcTtMO6n/AQAAYMHFhGHDifrayXdicFfMUBpMtGFFu2wmeDljGDYXjLShRFrfvaNDhamQJwtzBkbtvtSWzfJx+11pGFbUv73TwrDmOLL97M2O1asKwwr7bmLcjutadh6s7U9hGAAAAFfpzodhs4HDzqpAoQ9KkmBjLpjogpBuX6PQayJUWKc0DCu4U22VE8OwkrZsylxjGLa6f5fbfjEMWziOccBUK9nvsvG4OC0Mmz6e+fMgPsZpzX6C9gQAAIBzuJA7w9rJeD8JP3oyffQjaxOByDWFYesfDSyxNuTJype0Zdg+3XZWhCeJubZY3b8n9P3OOIwaC8t07TK/32XRtov6bq5fguM8mCizany22zj12AEAAGDKhYRhbWjRTt5PmEyPQoB2u8t3mE2FJt36swHCTrffODBYEcic9e6wmfCjCTfSOrXBy6D+RW3Z7WMfzvTHMfxupbngZXX/rmj7sI+77c8dS1en/T72Y2Fpv8vCoO2ovgvKhKbaq6QdO8G+AQAA4JwuKAzrJ+ptOHFskNBO+tswovbV18bba+6uGZSpTe5vEG60gsCqCyiOD8NqgyBpYG2okB//QVa3guMqact9YLQv0613FWHYzrH92zocY3E7ZccXltn3f63ex2ljuNfWMRhvi30X1Xm8nTXnQVs2qEsmvnMNAAAAzudiXqAPpE4KFc+uINRdCDIBAADgHIRhcBFeqr6aBF8F4dN1Cx7R3OvuVrtV9QUAAOAiCcO2YPRYXOQ23pETPa43dtHvl1rTd8njlrc0WGrqGD9yKQgDAADgOgjDAAAAANgMYRgAAAAAmyEMAwAAAGAzhGEAAAAAbIYwDAAAAIDNEIYBAAAAsBnCMAAAAAA2QxgGAAAAwGYIwwAAAADYDGEYAAAAAJshDAMAAABgM4RhAAAAAGyGMAwAAACAzRCGAQAAALAZwjAAAAAANkMYBgAAAMBmCMMAAAAA2AxhGAAAAACbIQwDAAAAYDOEYQAAAABshjAMAAAAgM0QhgEAAACwGcIwAAAAADZDGAYAAADAZgjDAAAAANgMYRgAAAAAmyEMAwAAAGAzhGEAAAAAbIYwDAAAAIDNEIYBAAAAsBnCMAAAAAA2QxhG4uW3fqf69v3PVy8Gy27K1dTps9Ur93fb/cHBV1+Lyi147Uvt+mH9Xqq+Otj+t3/wperlUZnj3ca+WtS017gd6mN545uuLQAAAFy9CwrD6uChn2S3QceNT66/8PnqjWNDlhty7oDlHNu7itDnbNucDcMOXvzmq5cZhjXH/2r1yheCZbm586FbJhADAADgql1OGNZMpvuwob0j58ZDKGHYLQ3Drn98CMPaNp8Nu9YEawAAAHCkywrD9sGAMOxYmwjDbqBfth6Gldb1VhwTAAAAF+3uh2FdsHF4L1NubQAxfpdUdDdLG24Myx0CgfGyobX1OQR76XbH22mChP3y48KeZhtvvXR4/K8RhR1tveL9jZcNjdszb/P02OI6nRAsFYRhoz7MA5qkLjt1/YbLM0thWFHf5fusHRUczfVdb3weDPeV1zcxqtOKcPoOBsgAAADcLRdzZ1gTNvST8CY0OC4sefmtLPjpAohkct58V/A411km9oPgYh8ydEHFPoDJP+8cue99yJEHH0nAUe8vbd827Bm3yXjdXHd8SZndd4NjGdepO97Z7eaCcGdouK1d/6aBXVfHMPAK2j4wHYaV9V3UvsttGynru+Jtl5wLpedLo20P7w4DAADgqlxWGNYHCs3k+7gwbKwNQoaT8+lgI3POMCwLW5KwYuJ4mzILIU0uDEGa41gIMyaOdSlUaZYvtGW0jeI+iBzRL9PHcWIYVtR34zG4LzPTtsVG7VF2TI2CoKs59hX1PNtxAQAAQOBiwrBheLB28p3ogoH8zqHwTqHGTBBwROgyFgchQ23QktZ3b2U7xEFEW4fkOJoQJNtXXmZnPtgoC12ibVxtGNbVKzu2+DhOC8OK+q6p73icHR0alfTdsMzcPgrCsLX1PPq4AAAAoMCdD8OaifNgQp9b9bhVH4QlwcZcGJWGJqNw5VrDsCODoUwYROTH0QUlSZ0mjnU+2LiNYVjfp+m2p4/jHGHYwnE09T1TGLai74bL2jEe1LMgDGuOcUU9m+NaaE8AAAA41oXcGdYGEv1k/ujJdDixXw6jJgOR2dClVMH+CwKJUmHAkm0/DHAmjnUpsCkJdKIyVxeGxe09Xc/TwrCivgvr2+13oe1ya/ouMVWmpP6rxmd7XPPnGwAAABzvQsKwNsBoJ+onTKZHE/52u6M7aUamAqtu/aVgrttvHBhMbXuoC0aODYcGxqFPcAx5uLGv/zgsacOXmSCkXzdpo90+B5+vNwwbh1vN/us6XkUYVtR3XZn9/vt1puo0Y0XfJaYCrW79486PwGzfAAAAwOkuKAzrJ+ptUFA08Q60oUUXNDST8vH29uHIwOT+BmFDKwg9mqChXhaFRqVBwiAgGVgbKuTHX4v2nbZBXe+2ntH+8vYab69d91AmbaPrDcN28j5766V2f4M6RO3UioOmXNoGJX2XtlG9LK9TqeW+y/ujL5duZ28/fjtBndp9LvdX1NcAAABwThfzAn3gNmsDttlQd+ruMwAAADgjYRhwPbo7yMJArLuLbjYsAwAAgDMQhm3BzON6B3f3jpz8MczQwju97rboscaxycdCr1MTiI0fl6z7UBAGAADAdRCGAQAAALAZwjAAAAAANkMYBgAAAMBmCMMAAAAA2AxhGAAAAACbIQwDAAAAYDOEYQAAAABshjAMAAAAgM0QhgEAAACwGcIwAAAAADZDGAYAAADAZgjDAAAAANgMYRgAAAAAmyEMAwAAAGAzhGEAAAAAbIYwDAAAAIDNEIYBAAAAsBnCMAAAAAA2QxgGAAAAwGYIwwAAAAD+/+3dv47cxgHAYbfqXLhQIUAvoNJI4c6dVOQFYkEy1EW1isBIYbkwcFAa17lOwBUS1KlQGwiIChvGdS5yDxG9QJjlcMidIWeW3LvTnW75FR90Iof/d4v7geSxGmIYAAAAAKshhgEAAACwGmIYAAAAAKshhgEAAACwGmIYAAAAAKshhgEAAACwGmIYAAAAAKshhgEAAACwGmIYAAAAAKshhgEAAACwGmJY0bfNyemr5uzsVfPuqDT/U7nTfPj1i+bjyzvZ9O+ePG1+/+Vvzfsn95q7X99v3m9+/v2n+813yRg4dM+fbT73m8/+mweb/z94GH7+/dk3+bhHXzUf//iyeZ1OAwAAgIQYVnRJMezxD83pHut4/faLpvn1q+b5eF78xT9EgLvfNG92xLA+GEwiQdSHtUE6rg8MNZV1lt1rjn8qrGOjO45PIW5zr/38TPSRc/Cw+jkYZMdZ/lxkIbWdVrzGT5vjr7fLDMvNBNfJZ6nX79fSz1NtXPFY4r7256twrcP3SBADAACgQgz7lPaIYc9f3qr/Ah9jQRbDisGnnfe0OX7Sjp/GlC6UjaZv1j2Ekky3nfOHq+sIUzczhvVRKT/Xm/OfxKBuTHrtxp+D+P8sbG2DZB7D8vhV2n6YtiiGFaJd0Y7PU2GfSrrt5TGs/Nnt7rBs3t4uzAMAAGDtxLBPaWkMC492fdGc/VyY18pi2I7gE8a1caIUHrpp5XhQsiNeLCKGLbIz6kRxzORapNPDzw+b4ydPt+tqp23ORRtBd8Ww0nn77GPY3Od57jsFAADAah1EDDt696o5e/d9c/foRXi0sXPcnDxOx33fvIth6vHJcTLuRXM0jNk+Hllex3bM6cm31fXk08fS7XXCXWGlxyP3FO78ikEj/bnTxYPloejqYlgXOTZje5UIMzwCGiTxJEahbB2J/BjiflXnpyEonrMoD0qlczMTaAqWBKX6mO5YwvZiDHve/hvPX3u+2n3MPguV8BTGJOd9ew7ycakl+7614/O0MIbtq/rYMQAAAKt2ODFsFJq6aWl46mJYGHf6Q/M4TIvxqw1pw7gohLV6DAvrGZaL6x6vZ9GdYZf1SNcoNoTAkIeKLl60YWdJeLiiGLbZzzwexQCVLdcHrPR4NtOejWPN3DYL645hK92H7Xkan8/+vFW2Uzjnc8YRqqQ+JtmPPoaFae1+tsfa7ct8DJsezyHEsLs/f+ndYQAAAEwcUAwb3XE1CVHlYBWWHeJYYi6GLVnPohh2uzm7jMe5xiEm3i01iQ+ju6jqdzFdUgxLttWZjyfFu5QWxZJKpIpq8WbR9kbnczpm97ZrLhbDktCVXP92394/exgekczGtMsUwlOYP5oWjm9RDGuXzZU/U3MxbLqefc/lhEclAQAAKDicGDYJWl38ah9nLP9/xlXFsEv6hX0aTObjTBdBamMuKYbNBo1KNEuOZXpsNbu3mUWh1CgkdpFnLtp152cIPyGWLQl2uSXHVh+THG92DPm1y5YvhafCupfHsLnz1JuLYfufu1liGAAAAAUHH8PGd4Z9djHsUu4M60LDJHIEu2NFFzRKIeIqYlgfwvJ9HMefJcGoc5UxLN+vsMzOYy1bsq36mCTIjY4hFZbvz9/C8JQtU7Fk37euK4bdaj48KswDAABgtQ43hoUQlcaszzWGXcI7w2oxofaoZKILGtcVw5KYk0wfx6/l0WX3NmvrOff2hrvB2u2eM+bEa1R/XHWjdh2T6x72uRKvsnlrimHeGQYAAEDBgcawLnzlweoaYlhxP6bCX5O8wC/t9XDRBYgQh9qgMolEyfxs+nbep41h0zEhTLX7lB1P3M9s2mbZyQv0++UrgSZGpWyfQojJj3N55In7P9m3/fTHnJ/rzTEn65weV3dO+oi2K15l81YUw/w1SQAAAEoO6AX6uWn0WhLDYrwqGYLWPjFsI94dtl3X6EX/rfhuo48v7+TTF9kdnbKIEsNPqn5H0lXEsI0+UPU248shJglPQS2ejMcVIlMyr7SevSJPIaady+TaTLc/hMIovXa74lV2PPvEsGRbg+R6LhmzNRfDCuuZiXE7eV8YAAAAFQf8zrCb5aJ3h3FNQshZencUV+MSHj0GAADgYIlhn434C7wgdnPU3uXFtQqPR/oeAQAAUCGGfVa6IHa+xyW5KunjgULYZyY8HimEAQAAUHcQMQwAAAAAlhDDAAAAAFgNMQwAAACA1RDDAAAAAFgNMQwAAACA1RDDAAAAAFgNMQwAAACA1RDDAAAAAFiNw4hhR/9pjs/+t/XuVXncCjw+OW7Ozl41Z+++L87fy9GLbl290x+ax6VxC71++0XTvL2dT//6fvP+l781v/90v/nu7r3m+KfNz788bY6/TsbAoVv4PWi/Qx9f3smmAQAAsJ8DuzPsx+avp2LYpcSwxz80p5v1vDsqzDuH5y9vNc0fXzavJ/O+ad60EeDZN924Z/UY9t2Tp5t5fTCYzh/WNUjX0weGmj0D3IOHhXVsVPftEoRt3sxQ2F3XrfdP7o3GjK9Pfpz9tX/zIF2mv94Pm+ft//ugNJIv04+bOY+z13f8WRuL+7Tjc1c8lrnvwaOvmo9/CGIAAAAXIYZRFKLaBe8EG/z8ZdP8cav58KgwrxgB+pCQ6qLCmyeVkBFDSB5Z2mVK64px5SLh6jrC1I2MYfH6js51e/63Magbk167Ln5tj3UIofFzEgzBKo9hWWSKY7LPxeIYtvxch89tum+DGMOK81JLvwcbO79PAAAAzBHDKDranMPLiWG3m7Odd7LkEaCLHoUIMASMLi6M7yyqLlcRxothn9zOqBOFMYVrkU5vf37/5P7ms7Jd1/Nnm3PxoP1cxGmlGBbGjdZ/A2LY3Oc5PHL861eLP+8AAABsrSyGvWr+nr5b7Oy/zV8fz40pj/3zu9KY/zX/OPlxu67H/27+kc4//Xfzp35e0G3r70d3mz+d/DdZz3+aP2fj5g2PR0anJ9+OxnzbnJx20/OxL5qjbFxnPoZ937xLtnd2dtycTM7lRriLpfR45H7SeFUKWV08WB4vri6GxciRmDy214ohZxiXxJMQWtJ5qfExhP3aMT/uT7sP3Tnrx/bhJcabwrnpxu8OW7luW9NHIlM7xoRj6bbXxbB74d9w/trz1e5jGrYqMWyy359lDNtTfFzy7OfCPAAAAHZaTwyLYSqNVX2AamNUNy2GsGT5bkwphCXBqrDu7qX+heWyIJaEt2H6Re9u6yJVLYaFcDW8TywGrf7/4xfmjwzvD4vvE0u30Qe28TvGLucOltHdYMWYkUSnBeHhamJYu995POrCzGi5GLCyILSZNolmM9ucrjuGmCxgJedpOP5RsCluZ3QNlqjEqcyuMcl+9DEsTNvsZ3us4f/pZ6GyrhCq0mtd/PyMzJzrsSuPYXfvNB9+9e4wAACA81hNDJuGqNZofIxa2zhWmlbaxnha9/8sjrXCutJANo1vrfK+LjUTw0Yv1q/dAbbrzrDyvNL6L+kX9km8qN9NFKJEG3qC+l1MlxPD0m11ZmPRJNjEOLUkluwMNJVzsnB7eTAqjNkzDgWVOJXZNWa47mmIa/ftYfOmfUSy3ZdhTP9zvq4uEI7Wny7TTxurXN/adZqNYZN17XkuCzwqCQAAcD4riWGVOLUR7vwawlPtzrD8scXanWGTO8wqxuNK+3V+nzqGbR+3zKeXXro/976wZbqgkYetyd0+YzGM1KLD5cSwBUGjElWGOFMIOFW7tlkNPOM7uirRbGR8zuuxZ4clx7ZrzHC8+TFk1y5dPv6cn+tCEK2eq8TS6xvNxrB9z90CYhgAAMD5iGFZDIvLZ/Fq+l6x/vHKVL7upZHr0GPYZdwZVruzpjUXK8p3QbWuJIbFEJaFp3H82RWDxq4whuX71S6zPAxtLdlWfcw2yI2PIdUtn8aw2XNZPVeJmxLD3t4uzgMAAKDOY5Lp+PCer7mX13cBK3uUcqK+H7mbGMNq88rrv/DdK9XAsTy0XFcMG99dFUyOZ8lxRDu3WVnPBbY3BJ52u+eMOWEdpbuzEmHM5FqkEanb53LkSuatKoZ5ZxgAAMB5recF+iF05eFp8nL8wkvvpxYGrML2pvaJYT82r3/7rflt4/WPpfm9Tx/D+hftp9voXqBf+IuS4a9J3mo+PBpNXypEiVJMiZEhRpTn/TukkjFdjCoHjau7MywZE2NNe7dYGmy6/RxFnM2yk6gTl6+FrC48pfuUn6Nu2r7xbbq/e+mPeXSu22Me1lk4rjwkimET/pokAADAuR1EDCs9ttgZha34bq/t/OldYN37wKayYBVD18T4zrPSuGzMHjHsL/9s/rUjhoV4dVbyojkKYy4xhrXiX5Scbmese2/YeR/nKt811MljV4wObXgZ1O9IupIYttEFql47vhJ2kvAU1OLJeFwhMmXzJ+vZI4YVY9p5TK/NZPt9NBuk124+hoX17RXD0m0Vtjk+z73KuZiNYYV1ze7nDt4XBgAAcH4HdmfYxZRelr+dHsNa6S9OtuL0ZXd5rcxF7w7jmnQhZ1k448r4PgEAAFyIGJaY/JXI0vR4t9ckhtWmE4Q7WfwCf6PsuiuPaxIfj/SuMAAAgPMTwzKlvya5MXr8sfxY5ty7xvDX726C7rHD8CifEPbZab9DQhgAAMDFiGEAAAAArIYYBgAAAMBqiGEAAAAArIYYBgAAAMBq7BXDAAAAAOAmE8MAAAAAWA0xDAAAAIDVEMMAAAAAWA0xDAAAAIDVEMMAAAAAWA0xDAAAAIDVEMMAAAAAWA0xDAAAAIDVEMMAAAAAWA0xDAAAAIDVEMMAAAAAWA0xDAAAAIDVEMMAAAAAWA0xDAAAAIDVEMMAAAAAWA0xDAAAAIDVEMMAAAAAWA0xDAAAAIDVEMMAAAAAWA0xDAAAAIDVEMMAAAAAWA0xDAAAAIDVEMMAAAAAWA0xDAAAAIDVEMMAAAAAWA0xDAAAAIDVEMMAAAAAWA0xDAAAAIDVEMMAAAAAWIm7zf8BTRhWcRye6XMAAAAASUVORK5CYII=;" vertex="1" parent="1">
          <mxGeometry x="1350" y="354" width="755" height="548.75" as="geometry" />
        </mxCell>
        <mxCell id="S-wY2ub1q2OpFXzZ6M3d-41" value="" style="edgeStyle=orthogonalEdgeStyle;rounded=0;orthogonalLoop=1;jettySize=auto;html=1;" edge="1" parent="1" source="S-wY2ub1q2OpFXzZ6M3d-13" target="L3F7ZepZsozi0lk-eWlK-9">
          <mxGeometry relative="1" as="geometry" />
        </mxCell>
        <mxCell id="S-wY2ub1q2OpFXzZ6M3d-13" value="&lt;div&gt;Update&lt;/div&gt;Excel Sheet (qf)" style="ellipse;whiteSpace=wrap;html=1;fillColor=#d5e8d4;strokeColor=#82b366;" vertex="1" parent="1">
          <mxGeometry x="638" y="1020" width="120" height="80" as="geometry" />
        </mxCell>
        <mxCell id="S-wY2ub1q2OpFXzZ6M3d-61" value="" style="edgeStyle=orthogonalEdgeStyle;rounded=0;orthogonalLoop=1;jettySize=auto;html=1;" edge="1" parent="1" source="S-wY2ub1q2OpFXzZ6M3d-19" target="L3F7ZepZsozi0lk-eWlK-10">
          <mxGeometry relative="1" as="geometry" />
        </mxCell>
        <mxCell id="S-wY2ub1q2OpFXzZ6M3d-19" value="Excel Sheet (qf)" style="ellipse;whiteSpace=wrap;html=1;fillColor=#e1d5e7;strokeColor=#9673a6;" vertex="1" parent="1">
          <mxGeometry x="-58" y="1020" width="120" height="80" as="geometry" />
        </mxCell>
        <mxCell id="S-wY2ub1q2OpFXzZ6M3d-20" value="" style="endArrow=classic;html=1;rounded=0;entryX=0.5;entryY=1;entryDx=0;entryDy=0;exitX=0.5;exitY=1;exitDx=0;exitDy=0;" edge="1" parent="1" source="Vi4naRsMEILFWYYEFc6n-7" target="S-wY2ub1q2OpFXzZ6M3d-13">
          <mxGeometry relative="1" as="geometry">
            <mxPoint x="1194" y="1147" as="sourcePoint" />
            <mxPoint x="920" y="1135" as="targetPoint" />
            <Array as="points">
              <mxPoint x="1192" y="1157" />
              <mxPoint x="698" y="1147" />
            </Array>
          </mxGeometry>
        </mxCell>
        <mxCell id="S-wY2ub1q2OpFXzZ6M3d-21" value="Update Featue Class" style="edgeLabel;resizable=0;html=1;;align=center;verticalAlign=middle;" connectable="0" vertex="1" parent="S-wY2ub1q2OpFXzZ6M3d-20">
          <mxGeometry relative="1" as="geometry" />
        </mxCell>
        <mxCell id="S-wY2ub1q2OpFXzZ6M3d-23" value="Module" style="rounded=0;whiteSpace=wrap;html=1;fillColor=#f8cecc;strokeColor=#b85450;" vertex="1" parent="1">
          <mxGeometry x="479" y="254" width="120" height="60" as="geometry" />
        </mxCell>
        <mxCell id="S-wY2ub1q2OpFXzZ6M3d-24" value="NUMBER OF JOBS" style="ellipse;whiteSpace=wrap;html=1;fillColor=#e1d5e7;strokeColor=#9673a6;" vertex="1" parent="1">
          <mxGeometry x="558" y="1287" width="120" height="80" as="geometry" />
        </mxCell>
        <mxCell id="S-wY2ub1q2OpFXzZ6M3d-49" value="" style="edgeStyle=orthogonalEdgeStyle;rounded=0;orthogonalLoop=1;jettySize=auto;html=1;" edge="1" parent="1" source="S-wY2ub1q2OpFXzZ6M3d-25" target="Vi4naRsMEILFWYYEFc6n-4">
          <mxGeometry relative="1" as="geometry" />
        </mxCell>
        <mxCell id="S-wY2ub1q2OpFXzZ6M3d-25" value="start time" style="rounded=0;whiteSpace=wrap;html=1;fillColor=#f8cecc;strokeColor=#b85450;" vertex="1" parent="1">
          <mxGeometry x="531" y="1741" width="120" height="60" as="geometry" />
        </mxCell>
        <mxCell id="S-wY2ub1q2OpFXzZ6M3d-46" value="" style="edgeStyle=orthogonalEdgeStyle;rounded=0;orthogonalLoop=1;jettySize=auto;html=1;" edge="1" parent="1" source="S-wY2ub1q2OpFXzZ6M3d-26" target="S-wY2ub1q2OpFXzZ6M3d-25">
          <mxGeometry relative="1" as="geometry" />
        </mxCell>
        <mxCell id="S-wY2ub1q2OpFXzZ6M3d-26" value="executor.submit" style="rounded=0;whiteSpace=wrap;html=1;fillColor=#f8cecc;strokeColor=#b85450;" vertex="1" parent="1">
          <mxGeometry x="360" y="1741" width="120" height="60" as="geometry" />
        </mxCell>
        <mxCell id="S-wY2ub1q2OpFXzZ6M3d-52" value="" style="edgeStyle=orthogonalEdgeStyle;rounded=0;orthogonalLoop=1;jettySize=auto;html=1;" edge="1" parent="1" source="S-wY2ub1q2OpFXzZ6M3d-27" target="S-wY2ub1q2OpFXzZ6M3d-30">
          <mxGeometry relative="1" as="geometry" />
        </mxCell>
        <mxCell id="S-wY2ub1q2OpFXzZ6M3d-27" value="import_ast()" style="rounded=0;whiteSpace=wrap;html=1;fillColor=#dae8fc;strokeColor=#6c8ebf;" vertex="1" parent="1">
          <mxGeometry x="1048" y="1741" width="120" height="60" as="geometry" />
        </mxCell>
        <mxCell id="S-wY2ub1q2OpFXzZ6M3d-51" value="" style="edgeStyle=orthogonalEdgeStyle;rounded=0;orthogonalLoop=1;jettySize=auto;html=1;" edge="1" parent="1" source="S-wY2ub1q2OpFXzZ6M3d-28" target="S-wY2ub1q2OpFXzZ6M3d-27">
          <mxGeometry relative="1" as="geometry" />
        </mxCell>
        <mxCell id="S-wY2ub1q2OpFXzZ6M3d-28" value="setup_logging()" style="rounded=0;whiteSpace=wrap;html=1;fillColor=#dae8fc;strokeColor=#6c8ebf;" vertex="1" parent="1">
          <mxGeometry x="885" y="1741" width="120" height="60" as="geometry" />
        </mxCell>
        <mxCell id="S-wY2ub1q2OpFXzZ6M3d-54" value="" style="edgeStyle=orthogonalEdgeStyle;rounded=0;orthogonalLoop=1;jettySize=auto;html=1;" edge="1" parent="1" source="S-wY2ub1q2OpFXzZ6M3d-29" target="S-wY2ub1q2OpFXzZ6M3d-30">
          <mxGeometry relative="1" as="geometry" />
        </mxCell>
        <mxCell id="S-wY2ub1q2OpFXzZ6M3d-29" value="AST params" style="ellipse;whiteSpace=wrap;html=1;fillColor=#e1d5e7;strokeColor=#9673a6;" vertex="1" parent="1">
          <mxGeometry x="1186.5" y="1607" width="120" height="80" as="geometry" />
        </mxCell>
        <mxCell id="S-wY2ub1q2OpFXzZ6M3d-53" value="" style="edgeStyle=orthogonalEdgeStyle;rounded=0;orthogonalLoop=1;jettySize=auto;html=1;" edge="1" parent="1" source="S-wY2ub1q2OpFXzZ6M3d-30" target="S-wY2ub1q2OpFXzZ6M3d-31">
          <mxGeometry relative="1" as="geometry" />
        </mxCell>
        <mxCell id="S-wY2ub1q2OpFXzZ6M3d-30" value="AST TOOL" style="whiteSpace=wrap;html=1;aspect=fixed;fillColor=#f5f5f5;fontColor=#333333;strokeColor=#666666;" vertex="1" parent="1">
          <mxGeometry x="1207" y="1731" width="80" height="80" as="geometry" />
        </mxCell>
        <mxCell id="S-wY2ub1q2OpFXzZ6M3d-31" value="add_job_result()" style="rounded=0;whiteSpace=wrap;html=1;fillColor=#fff2cc;strokeColor=#d6b656;" vertex="1" parent="1">
          <mxGeometry x="1327" y="1741" width="120" height="60" as="geometry" />
        </mxCell>
        <mxCell id="S-wY2ub1q2OpFXzZ6M3d-45" value="" style="endArrow=classic;html=1;rounded=0;entryX=0.5;entryY=0;entryDx=0;entryDy=0;exitX=0.5;exitY=1;exitDx=0;exitDy=0;" edge="1" parent="1" source="S-wY2ub1q2OpFXzZ6M3d-24" target="L3F7ZepZsozi0lk-eWlK-13">
          <mxGeometry width="50" height="50" relative="1" as="geometry">
            <mxPoint x="412" y="1359" as="sourcePoint" />
            <mxPoint x="462" y="1309" as="targetPoint" />
          </mxGeometry>
        </mxCell>
        <mxCell id="S-wY2ub1q2OpFXzZ6M3d-58" value="Process Job()" style="text;html=1;align=center;verticalAlign=middle;resizable=0;points=[];autosize=1;strokeColor=none;fillColor=none;fontSize=24;fontStyle=1" vertex="1" parent="1">
          <mxGeometry x="959" y="1442" width="166" height="41" as="geometry" />
        </mxCell>
        <mxCell id="S-wY2ub1q2OpFXzZ6M3d-59" value="batch_ast()" style="text;html=1;align=center;verticalAlign=middle;resizable=0;points=[];autosize=1;strokeColor=none;fillColor=none;fontSize=27;fontStyle=1" vertex="1" parent="1">
          <mxGeometry x="197" y="1374" width="153" height="44" as="geometry" />
        </mxCell>
      </root>
    </mxGraphModel>
  </diagram>
</mxfile>
